<svg xmlns="http://www.w3.org/2000/svg" xmlns:xlink="http://www.w3.org/1999/xlink" width="34" height="34" viewBox="0 0 34 34">
  <defs>
    <clipPath id="clip-Attachment">
      <rect width="34" height="34"/>
    </clipPath>
  </defs>
  <g id="Attachment" clip-path="url(#clip-Attachment)">
    <g id="Group_17509" data-name="Group 17509" transform="translate(-1)">
      <rect id="Rectangle_12764" data-name="Rectangle 12764" width="31" height="31" rx="15.5" transform="translate(3 1.5)" fill="none" stroke="#2f85cf" stroke-width="1"/>
    </g>
    <path id="Path_12233" data-name="Path 12233" d="M263.934,78.832A3.533,3.533,0,0,1,260.4,75.3V64.027a2.431,2.431,0,0,1,4.862,0V75.3a1.326,1.326,0,1,1-2.652,0V65.574a.221.221,0,1,1,.442,0V75.3a.884.884,0,1,0,1.768,0V64.027a1.989,1.989,0,1,0-3.977,0V75.3a3.094,3.094,0,1,0,6.187,0V65.132h0a.221.221,0,1,1,.442,0V75.3a3.533,3.533,0,0,1-3.536,3.536Z" transform="translate(-247.123 -53.214)" stroke="#000" stroke-width="0.5"/>
  </g>
</svg>
