<svg xmlns="http://www.w3.org/2000/svg" xmlns:xlink="http://www.w3.org/1999/xlink" width="44" height="44" viewBox="0 0 44 44">
  <defs>
    <clipPath id="clip-Call">
      <rect width="44" height="44"/>
    </clipPath>
  </defs>
  <g id="Call" clip-path="url(#clip-Call)">
    <g id="Group_11036" data-name="Group 11036" transform="translate(-7706 -14400)">
      <g id="Group_11018" data-name="Group 11018" transform="translate(7259 13982)">
        <g id="Group_11013" data-name="Group 11013" transform="translate(-987.897 -180.787)">
          <path id="Path_11607" data-name="Path 11607" d="M132.094,57.436a1.89,1.89,0,0,0-2.667,0L128.4,58.464l-5.9-5.9,1.028-1.028a1.89,1.89,0,0,0,0-2.667l-1.57-1.57a1.9,1.9,0,0,0-2.482-.164c-2.157,1.643-3.045,3.2-2.639,4.632.972,3.419,8.946,11.393,12.365,12.365a2.5,2.5,0,0,0,.682.094c1.237,0,2.562-.916,3.947-2.737a1.9,1.9,0,0,0-.164-2.482Zm1.178,3.629c-1,1.311-2.482,2.79-3.884,2.391-3.2-.909-10.974-8.684-11.882-11.882-.4-1.4,1.08-2.884,2.391-3.884a1.191,1.191,0,0,1,1.563.1l1.57,1.57a1.19,1.19,0,0,1,0,1.678l-1.276,1.276a.348.348,0,0,0,0,.493l6.4,6.4a.348.348,0,0,0,.493,0l1.276-1.276a1.187,1.187,0,0,1,1.678,0l1.57,1.57a1.194,1.194,0,0,1,.1,1.566Z" transform="translate(1320.428 565.309)"/>
          <path id="Path_11607_-_Outline" data-name="Path 11607 - Outline" d="M129.951,64.564a2.787,2.787,0,0,1-.755-.1c-1.941-.552-5-3.117-7.218-5.334s-4.782-5.277-5.333-7.217c-.439-1.548.481-3.2,2.735-4.92a2.169,2.169,0,0,1,2.836.188l1.57,1.57a2.158,2.158,0,0,1,0,3.049l-.837.837,5.519,5.52.837-.837a2.16,2.16,0,0,1,3.049,0l1.57,1.57a2.17,2.17,0,0,1,.188,2.836C132.678,63.607,131.278,64.564,129.951,64.564ZM120.69,47.088a1.608,1.608,0,0,0-.983.33c-2.06,1.569-2.916,3.031-2.543,4.344.431,1.517,2.471,4.258,5.2,6.983s5.466,4.765,6.983,5.2a2.246,2.246,0,0,0,.608.084c1.15,0,2.405-.885,3.732-2.631a1.629,1.629,0,0,0-.14-2.128l-1.57-1.57a1.621,1.621,0,0,0-2.286,0l-1.218,1.218-6.282-6.282,1.218-1.218a1.618,1.618,0,0,0,0-2.286l-1.57-1.57A1.607,1.607,0,0,0,120.69,47.088Zm9.246,16.773a2.017,2.017,0,0,1-.552-.076c-1.819-.517-4.765-3-6.917-5.151s-4.635-5.1-5.151-6.917c-.348-1.223.512-2.666,2.487-4.172a1.46,1.46,0,0,1,1.918.126l1.568,1.568a1.458,1.458,0,0,1,0,2.059l-1.276,1.276a.078.078,0,0,0,0,.112l6.4,6.4a.079.079,0,0,0,.112,0l1.276-1.276a1.456,1.456,0,0,1,2.059,0l1.57,1.57a1.463,1.463,0,0,1,.129,1.92C132.667,62.467,131.318,63.861,129.936,63.861ZM120.69,47.784a.908.908,0,0,0-.559.189c-1.245.949-2.653,2.343-2.3,3.6.4,1.416,2.37,4.04,5.014,6.683s5.267,4.611,6.683,5.014a1.478,1.478,0,0,0,.4.056c1.161,0,2.376-1.278,3.191-2.351a.922.922,0,0,0-.08-1.212l-1.57-1.57a.917.917,0,0,0-1.3,0L128.9,59.465a.618.618,0,0,1-.874,0l-6.4-6.4a.619.619,0,0,1,0-.874l1.276-1.276a.918.918,0,0,0,0-1.3l-1.57-1.57A.9.9,0,0,0,120.69,47.784Z" transform="translate(1320.359 565.239)"/>
          <path id="Path_11608" data-name="Path 11608" d="M403.13,58.328a.351.351,0,0,0,.349-.35,6.468,6.468,0,0,0-6.46-6.46.35.35,0,0,0,0,.7,5.766,5.766,0,0,1,5.761,5.761.351.351,0,0,0,.35.35Z" transform="translate(1050.983 560.718)"/>
          <path id="Path_11608_-_Outline" data-name="Path 11608 - Outline" d="M403.183,58.582h0a.553.553,0,0,1-.552-.552,5.565,5.565,0,0,0-5.559-5.559.552.552,0,0,1,0-1.1,6.67,6.67,0,0,1,6.663,6.663A.552.552,0,0,1,403.183,58.582Zm-6.111-6.81a.147.147,0,0,0,0,.295,5.97,5.97,0,0,1,5.963,5.963.148.148,0,0,0,.148.147h0a.147.147,0,0,0,.147-.147A6.265,6.265,0,0,0,397.072,51.772Z" transform="translate(1050.93 560.665)"/>
          <path id="Path_11609" data-name="Path 11609" d="M400.424,118.351a.35.35,0,0,0,.7,0,4.116,4.116,0,0,0-4.111-4.111.35.35,0,1,0,0,.7,3.417,3.417,0,0,1,3.412,3.412Z" transform="translate(1050.99 500.345)"/>
          <path id="Path_11609_-_Outline" data-name="Path 11609 - Outline" d="M400.825,118.955a.552.552,0,0,1-.552-.552,3.214,3.214,0,0,0-3.21-3.21.552.552,0,0,1,0-1.1,4.318,4.318,0,0,1,4.313,4.313A.552.552,0,0,1,400.825,118.955Zm-3.762-4.461a.147.147,0,1,0,0,.295,3.619,3.619,0,0,1,3.614,3.614.148.148,0,0,0,.147.147.148.148,0,0,0,.147-.147A3.913,3.913,0,0,0,397.064,114.494Z" transform="translate(1050.938 500.293)"/>
          <path id="Path_11610" data-name="Path 11610" d="M396.67,177.308a.351.351,0,0,0,.349.35,1.061,1.061,0,0,1,1.059,1.059.349.349,0,1,0,.7,0,1.76,1.76,0,0,0-1.758-1.758.351.351,0,0,0-.349.35Z" transform="translate(1050.983 439.976)"/>
          <path id="Path_11610_-_Outline" data-name="Path 11610 - Outline" d="M397.072,176.808a1.963,1.963,0,0,1,1.961,1.961.552.552,0,1,1-1.1,0,.858.858,0,0,0-.857-.857.552.552,0,0,1,0-1.1Zm1.409,2.108a.148.148,0,0,0,.147-.147,1.558,1.558,0,0,0-1.556-1.556.147.147,0,0,0,0,.295,1.263,1.263,0,0,1,1.262,1.261A.148.148,0,0,0,398.481,178.916Z" transform="translate(1050.93 439.924)"/>
        </g>
        <rect id="Rectangle_12655" data-name="Rectangle 12655" width="40" height="40" transform="translate(449 420)" fill="none"/>
      </g>
    </g>
  </g>
</svg>
