<svg xmlns="http://www.w3.org/2000/svg" xmlns:xlink="http://www.w3.org/1999/xlink" width="23" height="24" viewBox="0 0 23 24">
  <defs>
    <clipPath id="clip-Company_Page">
      <rect width="23" height="24"/>
    </clipPath>
  </defs>
  <g id="Company_Page" data-name="Company Page" clip-path="url(#clip-Company_Page)">
    <g id="Group_6965" data-name="Group 6965" transform="translate(-12862 6074)">
      <g id="Group_6963" data-name="Group 6963" transform="translate(12864 -6071)">
        <g id="Group_6962" data-name="Group 6962">
          <g id="Group_6954" data-name="Group 6954">
            <path id="Path_7335" data-name="Path 7335" d="M17.02,19H1.979A1.981,1.981,0,0,1,0,17.02V1.979A1.981,1.981,0,0,1,1.979,0H17.02A1.981,1.981,0,0,1,19,1.979V17.02A1.981,1.981,0,0,1,17.02,19ZM1.979.792A1.189,1.189,0,0,0,.792,1.979V17.02a1.189,1.189,0,0,0,1.187,1.187H17.02a1.189,1.189,0,0,0,1.187-1.187V1.979A1.189,1.189,0,0,0,17.02.792Z" fill="#fff" stroke="#fff" stroke-width="0.1"/>
          </g>
          <g id="Group_6955" data-name="Group 6955" transform="translate(0 3.167)">
            <path id="Path_7336" data-name="Path 7336" d="M18.6,4.792H.4A.4.4,0,0,1,.4,4H18.6a.4.4,0,0,1,0,.792Z" transform="translate(0 -4)" fill="#fff" stroke="#fff" stroke-width="0.1"/>
          </g>
          <g id="Group_6956" data-name="Group 6956" transform="translate(1.583 1.583)">
            <circle id="Ellipse_540" data-name="Ellipse 540" transform="translate(0.417 0.417)" fill="#fff" stroke="#fff" stroke-width="0.1"/>
          </g>
          <g id="Group_6957" data-name="Group 6957" transform="translate(3.167 1.583)">
            <ellipse id="Ellipse_541" data-name="Ellipse 541" cx="0.5" rx="0.5" transform="translate(-0.166 0.417)" fill="#fff" stroke="#fff" stroke-width="0.5"/>
          </g>
          <g id="Group_6958" data-name="Group 6958" transform="translate(4.75 1.583)">
            <ellipse id="Ellipse_542" data-name="Ellipse 542" cx="0.5" rx="0.5" transform="translate(0.25 0.417)" fill="#fff" stroke="#fff" stroke-width="0.5"/>
          </g>
          <g id="Group_6959" data-name="Group 6959" transform="translate(3.167 7.125)">
            <path id="Path_7337" data-name="Path 7337" d="M16.27,9.792H4.4A.4.4,0,0,1,4.4,9H16.27a.4.4,0,0,1,0,.792Z" transform="translate(-4 -9)" fill="#fff" stroke="#fff" stroke-width="0.1"/>
          </g>
          <g id="Group_6960" data-name="Group 6960" transform="translate(3.167 10.291)">
            <path id="Path_7338" data-name="Path 7338" d="M16.27,13.792H4.4A.4.4,0,0,1,4.4,13H16.27a.4.4,0,0,1,0,.792Z" transform="translate(-4 -13)" fill="#fff" stroke="#fff" stroke-width="0.1"/>
          </g>
          <g id="Group_6961" data-name="Group 6961" transform="translate(3.167 13.458)">
            <path id="Path_7339" data-name="Path 7339" d="M16.27,17.792H4.4A.4.4,0,0,1,4.4,17H16.27a.4.4,0,0,1,0,.792Z" transform="translate(-4 -17)" fill="#fff" stroke="#fff" stroke-width="0.1"/>
          </g>
        </g>
      </g>
    </g>
  </g>
</svg>
