<svg xmlns="http://www.w3.org/2000/svg" xmlns:xlink="http://www.w3.org/1999/xlink" width="34" height="34" viewBox="0 0 34 34">
  <defs>
    <clipPath id="clip-Call">
      <rect width="34" height="34"/>
    </clipPath>
  </defs>
  <g id="Call" clip-path="url(#clip-Call)">
    <g id="Group_17507" data-name="Group 17507" transform="translate(-8486 4482)">
      <path id="Path_12229" data-name="Path 12229" d="M15.5,0A15.5,15.5,0,1,1,0,15.5,15.5,15.5,0,0,1,15.5,0Z" transform="translate(8488 -4480.5)" fill="none" stroke="#2f85cf" stroke-width="1"/>
      <g id="Group_11302" data-name="Group 11302" transform="translate(8496.664 -4472)">
        <path id="Path_11706" data-name="Path 11706" d="M43.79,40.776a.757.757,0,0,0-1.123.062c-.452.557-1.014,1.131-1.408,1.131-1.966,0-5.562-3.6-5.562-5.562,0-.394.574-.956,1.131-1.408a.757.757,0,0,0,.062-1.123L35.24,32.227a.757.757,0,0,0-1.032-.035c-1.165,1.006-2.22,2.147-2.22,2.979,0,3.714,6.791,10.505,10.505,10.505.832,0,1.973-1.055,2.98-2.22a.757.757,0,0,0-.035-1.032Zm0,0" transform="translate(-31.989 -32.006)" fill="none" stroke="#000" stroke-linecap="round" stroke-linejoin="round" stroke-miterlimit="10" stroke-width="0.9"/>
        <path id="Path_11707" data-name="Path 11707" d="M145.744,145.736a3.231,3.231,0,0,1,3.231,3.231" transform="translate(-138.439 -142.601)" fill="none" stroke="#000" stroke-linecap="round" stroke-linejoin="round" stroke-miterlimit="10" stroke-width="0.9"/>
        <path id="Path_11709" data-name="Path 11709" d="M45.968,45.965a5.981,5.981,0,0,1,5.981,5.981" transform="translate(-38.663 -45.58)" fill="none" stroke="#000" stroke-linecap="round" stroke-linejoin="round" stroke-miterlimit="10" stroke-width="0.9"/>
      </g>
    </g>
  </g>
</svg>
