<svg xmlns="http://www.w3.org/2000/svg" xmlns:xlink="http://www.w3.org/1999/xlink" width="31" height="31" viewBox="0 0 31 31">
  <defs>
    <clipPath id="clip-Contact">
      <rect width="31" height="31"/>
    </clipPath>
  </defs>
  <g id="Contact" clip-path="url(#clip-Contact)">
    <g id="Group_17573" data-name="Group 17573" transform="translate(-341 -1726)">
      <circle id="Ellipse_1132" data-name="Ellipse 1132" cx="15" cy="15" r="15" transform="translate(342 1727)" fill="#fff"/>
      <g id="Group_11013" data-name="Group 11013" transform="translate(349.452 1734.614)">
        <path id="Path_11607" data-name="Path 11607" d="M129.719,55.783a1.6,1.6,0,0,0-2.255,0l-.869.869-4.988-4.988.869-.869a1.6,1.6,0,0,0,0-2.255l-1.327-1.327a1.605,1.605,0,0,0-2.1-.139c-1.823,1.389-2.574,2.707-2.231,3.916.821,2.89,7.562,9.631,10.452,10.452a2.117,2.117,0,0,0,.576.08c1.046,0,2.166-.774,3.336-2.314a1.605,1.605,0,0,0-.139-2.1Zm1,3.067c-.842,1.108-2.1,2.358-3.283,2.021-2.7-.768-9.276-7.34-10.044-10.044-.337-1.185.913-2.438,2.021-3.283a1.007,1.007,0,0,1,1.321.086l1.327,1.327a1.006,1.006,0,0,1,0,1.418l-1.079,1.079a.294.294,0,0,0,0,.417l5.408,5.408a.294.294,0,0,0,.417,0l1.079-1.079a1,1,0,0,1,1.418,0l1.327,1.327a1.009,1.009,0,0,1,.089,1.324Z" transform="translate(-116.739 -46.748)" stroke="#000" stroke-width="0.3"/>
        <path id="Path_11608" data-name="Path 11608" d="M402.131,57.274a.3.3,0,0,0,.3-.3,5.467,5.467,0,0,0-5.461-5.461.3.3,0,0,0,0,.591,4.874,4.874,0,0,1,4.87,4.87.3.3,0,0,0,.3.3Z" transform="translate(-387.807 -51.367)" stroke="#000" stroke-width="0.3"/>
        <path id="Path_11609" data-name="Path 11609" d="M399.842,117.715a.3.3,0,1,0,.591,0,3.479,3.479,0,0,0-3.475-3.475.3.3,0,0,0,0,.591,2.888,2.888,0,0,1,2.884,2.884Z" transform="translate(-387.799 -112.103)" stroke="#000" stroke-width="0.3"/>
        <path id="Path_11610" data-name="Path 11610" d="M396.67,177.253a.3.3,0,0,0,.3.3.9.9,0,0,1,.9.9.3.3,0,1,0,.591,0,1.487,1.487,0,0,0-1.486-1.486.3.3,0,0,0-.3.3Z" transform="translate(-387.807 -172.835)" stroke="#000" stroke-width="0.3"/>
      </g>
    </g>
  </g>
</svg>
