<svg xmlns="http://www.w3.org/2000/svg" xmlns:xlink="http://www.w3.org/1999/xlink" width="34" height="34" viewBox="0 0 34 34">
  <defs>
    <clipPath id="clip-Copy_Link">
      <rect width="34" height="34"/>
    </clipPath>
  </defs>
  <g id="Copy_Link" data-name="Copy Link" clip-path="url(#clip-Copy_Link)">
    <g id="Group_17508" data-name="Group 17508" transform="translate(-8429 4482)">
      <g id="noun-copy-link-3595804" transform="translate(8334 -4507)">
        <path id="Path_11701" data-name="Path 11701" d="M220.03,151.614h-8.446A1.586,1.586,0,0,1,210,150.03v-8.446A1.586,1.586,0,0,1,211.584,140h8.446a1.586,1.586,0,0,1,1.584,1.584v8.446a1.586,1.586,0,0,1-1.584,1.584Zm-8.446-10.558a.528.528,0,0,0-.528.528v8.446a.528.528,0,0,0,.528.528h8.446a.528.528,0,0,0,.528-.528v-8.446a.528.528,0,0,0-.528-.528Z" transform="translate(-101.833 -101.833)"/>
        <path id="Path_11702" data-name="Path 11702" d="M106.584,46.614A1.586,1.586,0,0,1,105,45.03V36.584A1.586,1.586,0,0,1,106.584,35h8.446a1.586,1.586,0,0,1,1.584,1.584.528.528,0,1,1-1.056,0,.528.528,0,0,0-.528-.528h-8.446a.528.528,0,0,0-.528.528V45.03a.528.528,0,0,0,.528.528.528.528,0,1,1,0,1.056Z" transform="translate(0 0)"/>
        <g id="Group_11301" data-name="Group 11301" transform="translate(111.332 41.333)">
          <path id="Path_11703" data-name="Path 11703" d="M363.035,217.643a.39.39,0,0,1-.275-.667l.138-.138a1.171,1.171,0,0,0-1.656-1.656l-.138.138h0a.39.39,0,0,1-.553-.551l.138-.138a1.952,1.952,0,0,1,2.76,2.759l-.139.138a.39.39,0,0,1-.276.114Z" transform="translate(-358.737 -214.059)"/>
          <path id="Path_11704" data-name="Path 11704" d="M286.006,294.02a1.951,1.951,0,0,1-1.38-3.33l.139-.138a.39.39,0,0,1,.551.553l-.138.138a1.171,1.171,0,1,0,1.656,1.656l.138-.138h0a.39.39,0,0,1,.553.551l-.138.138A1.945,1.945,0,0,1,286.006,294.02Z" transform="translate(-284.054 -288.738)"/>
          <path id="Path_11705" data-name="Path 11705" d="M366.844,286.112a.39.39,0,0,1-.276-.666l1.1-1.1a.39.39,0,0,1,.552.552l-1.1,1.1A.389.389,0,0,1,366.844,286.112Z" transform="translate(-364.617 -282.666)"/>
        </g>
      </g>
      <path id="Path_12231" data-name="Path 12231" d="M15.5,0A15.5,15.5,0,1,1,0,15.5,15.5,15.5,0,0,1,15.5,0Z" transform="translate(8430.5 -4480.5)" fill="none" stroke="#d96f20" stroke-width="1"/>
    </g>
  </g>
</svg>
