<svg xmlns="http://www.w3.org/2000/svg" xmlns:xlink="http://www.w3.org/1999/xlink" width="33" height="33" viewBox="0 0 33 33">
  <defs>
    <clipPath id="clip-Delete">
      <rect width="33" height="33"/>
    </clipPath>
  </defs>
  <g id="Delete" clip-path="url(#clip-Delete)">
    <g id="Group_5154" data-name="Group 5154" transform="translate(1 1)">
      <path id="Path_2398" data-name="Path 2398" d="M15.486,0A15.486,15.486,0,1,1,0,15.486,15.486,15.486,0,0,1,15.486,0Z" fill="#333"/>
      <g id="Group_5039" data-name="Group 5039" transform="translate(7.95 7.039)">
        <g id="Group_4900" data-name="Group 4900" transform="translate(0 0)">
          <rect id="Rectangle_3868" data-name="Rectangle 3868" width="1" height="9" transform="translate(6.537 5.447)" fill="#fff"/>
          <rect id="Rectangle_3869" data-name="Rectangle 3869" width="1" height="9" transform="translate(8.537 5.447)" fill="#fff"/>
          <rect id="Rectangle_3870" data-name="Rectangle 3870" width="1" height="9" transform="translate(4.537 5.447)" fill="#fff"/>
          <path id="Path_2392" data-name="Path 2392" d="M59.332,21.347h1.4v11.49a1.061,1.061,0,0,0,1.059,1.057h8.657a1.065,1.065,0,0,0,1.064-1.057V21.347h1.082a.321.321,0,0,0,.332-.307V19.2a.337.337,0,0,0-.332-.325h-3.8V17.32a.324.324,0,0,0-.323-.32h-4.7a.319.319,0,0,0-.318.32v1.553H59.332A.337.337,0,0,0,59,19.2V21.04A.321.321,0,0,0,59.332,21.347Zm11.543,11.49a.429.429,0,0,1-.428.421H61.791a.424.424,0,0,1-.423-.421V21.347h9.507Zm-6.786-15.2h4.065v1.237H64.089Zm-4.453,1.873H72.289v1.2H59.636Z" transform="translate(-59 -17)" fill="#fff" stroke="#fff" stroke-width="0.2"/>
        </g>
      </g>
    </g>
  </g>
</svg>
