<svg xmlns="http://www.w3.org/2000/svg" xmlns:xlink="http://www.w3.org/1999/xlink" width="47" height="45" viewBox="0 0 47 45">
  <defs>
    <clipPath id="clip-Download_attachment_icon">
      <rect width="47" height="45"/>
    </clipPath>
  </defs>
  <g id="Download_attachment_icon" data-name="Download attachment icon" clip-path="url(#clip-Download_attachment_icon)">
    <g id="Group_20043" data-name="Group 20043" transform="translate(-16440 6270)">
      <g id="Ellipse_1462" data-name="Ellipse 1462" transform="translate(16442 -6268)" fill="none" stroke="#2f85cf" stroke-width="1">
        <circle cx="20" cy="20" r="20" stroke="none"/>
        <circle cx="20" cy="20" r="19.5" fill="none"/>
      </g>
      <g id="Ellipse_1463" data-name="Ellipse 1463" transform="translate(16470 -6244)" fill="#fff" stroke="#2f85cf" stroke-width="1">
        <circle cx="8" cy="8" r="8" stroke="none"/>
        <circle cx="8" cy="8" r="7.5" fill="none"/>
      </g>
      <path id="Path_21924" data-name="Path 21924" d="M29.938,18.531l.075.075h.03l.03.03h.045c.015,0,.015,0,.03.015a.223.223,0,0,0,.105.015h.2c.045,0,.075-.015.105-.015a.114.114,0,0,0,.06-.03c.015,0,.015-.015.03-.015h.03l.06-.06,2.756-2.364a.6.6,0,0,0-.783-.9l-1.732,1.491V9.857l-.015-.03a.7.7,0,0,0-.647-.527.6.6,0,0,0-.6.6v6.851l-1.732-1.476a.577.577,0,0,0-.437-.151.569.569,0,0,0-.407.211.577.577,0,0,0-.151.437.569.569,0,0,0,.211.407Z" transform="translate(16447.66 -6249.983)"/>
      <g id="Group_20042" data-name="Group 20042" transform="translate(-1 0)">
        <g id="Group_20041" data-name="Group 20041" transform="translate(16461.199 -6233.062) rotate(-135)">
          <path id="Path_21925" data-name="Path 21925" d="M18.474,20.561a5.5,5.5,0,0,0,0-7.771L6.817,1.134A3.879,3.879,0,1,0,1.332,6.619L12.988,18.276a2.262,2.262,0,1,0,3.2-3.2L6.131,5.02a.646.646,0,1,0-.914.914L15.274,15.99A.97.97,0,1,1,13.9,17.361L2.246,5.705A2.586,2.586,0,1,1,5.9,2.048L17.559,13.7a4.2,4.2,0,1,1-5.942,5.942L1.1,9.133a.646.646,0,1,0-.914.914L10.7,20.561A5.5,5.5,0,0,0,18.474,20.561Z" transform="translate(0 0)" stroke="#000" stroke-width="0.2"/>
        </g>
      </g>
    </g>
  </g>
</svg>
