<svg xmlns="http://www.w3.org/2000/svg" xmlns:xlink="http://www.w3.org/1999/xlink" width="44" height="44" viewBox="0 0 44 44">
  <defs>
    <clipPath id="clip-Edit">
      <rect width="44" height="44"/>
    </clipPath>
  </defs>
  <g id="Edit" clip-path="url(#clip-Edit)">
    <g id="Group_11235" data-name="Group 11235">
      <rect id="Rectangle_12223" data-name="Rectangle 12223" width="44" height="44" rx="22" fill="#d8d8d8"/>
      <g id="Group_11233" data-name="Group 11233" transform="translate(13 12.186)">
        <g id="Group_4947" data-name="Group 4947">
          <path id="Path_2393" data-name="Path 2393" d="M168.744,43.755a.394.394,0,0,0-.558,0l-9.28,9.28a.394.394,0,0,0-.112.223L158.3,56.71a.394.394,0,0,0,.439.447l3.509-.435a.394.394,0,0,0,.23-.113l9.28-9.28a.4.4,0,0,0,0-.558Zm-6.726,12.2-2.863.355.4-2.81,5.975-5.975,2.458,2.458Zm6.53-6.53-2.458-2.458,2.375-2.375,2.458,2.458Z" transform="translate(-153.287 -43.639)" fill="#333" stroke="#333" stroke-width="0.5"/>
          <path id="Path_2394" data-name="Path 2394" d="M60.481,106.143a.589.589,0,0,1-.6.593H45.395a.593.593,0,0,1-.606-.593V92.394a.6.6,0,0,1,.606-.605h7.766V91H45.395A1.393,1.393,0,0,0,44,92.394v13.749a1.383,1.383,0,0,0,1.395,1.382H59.881a1.378,1.378,0,0,0,1.389-1.382v-8.3h-.789Z" transform="translate(-44 -88.924)" fill="#333" stroke="#333" stroke-width="0.5"/>
        </g>
      </g>
    </g>
  </g>
</svg>
