<svg xmlns="http://www.w3.org/2000/svg" xmlns:xlink="http://www.w3.org/1999/xlink" width="31" height="28" viewBox="0 0 31 28">
  <defs>
    <clipPath id="clip-Edit">
      <rect width="31" height="28"/>
    </clipPath>
  </defs>
  <g id="Edit" clip-path="url(#clip-Edit)">
    <g id="Group_5156" data-name="Group 5156" transform="translate(4 1)">
      <path id="Path_2393" data-name="Path 2393" d="M171.414,43.785a.5.5,0,0,0-.7,0L159.061,55.437a.5.5,0,0,0-.14.28L158.3,60.05a.5.5,0,0,0,.551.561l4.406-.546a.5.5,0,0,0,.289-.141L175.2,48.272a.5.5,0,0,0,0-.7ZM162.969,59.1l-3.594.446.5-3.529,7.5-7.5,3.087,3.087Zm8.2-8.2-3.087-3.087,2.983-2.983,3.087,3.087Z" transform="translate(-152.007 -43.639)" fill="#333" stroke="#333" stroke-width="0.5"/>
      <path id="Path_2394" data-name="Path 2394" d="M64.693,110.013a.739.739,0,0,1-.753.745H45.751a.745.745,0,0,1-.76-.745V92.75a.758.758,0,0,1,.76-.76H55.5V91H45.751A1.75,1.75,0,0,0,44,92.75v17.263a1.737,1.737,0,0,0,1.751,1.735H63.94a1.731,1.731,0,0,0,1.744-1.735V99.586h-.991Z" transform="translate(-44 -88.393)" fill="#333" stroke="#333" stroke-width="0.5"/>
    </g>
  </g>
</svg>
