<svg xmlns="http://www.w3.org/2000/svg" xmlns:xlink="http://www.w3.org/1999/xlink" width="24" height="22" viewBox="0 0 24 22">
  <defs>
    <clipPath id="clip-Job">
      <rect width="24" height="22"/>
    </clipPath>
  </defs>
  <g id="Job" clip-path="url(#clip-Job)">
    <path id="Path_11697" data-name="Path 11697" d="M165.586,101.76a.816.816,0,0,0-.815-.815h-6.432V99.024a1.277,1.277,0,0,0-1.26-1.26h-4.02a1.261,1.261,0,0,0-1.26,1.26v1.921h-6.431a.816.816,0,0,0-.815.815l-.012,5.55a.117.117,0,0,0,.066.106q.471.228.964.431a.109.109,0,0,0-.007.036v7.742a.816.816,0,0,0,.815.815h17.381a.826.826,0,0,0,.815-.815v-7.858a.117.117,0,0,0-.006-.031q.5-.22.966-.468a.118.118,0,0,0,.063-.1Zm-13.552-2.736A1.026,1.026,0,0,1,153.059,98h4.02a1.039,1.039,0,0,1,1.025,1.025v1.921h-6.071Zm4.836,10.184a.125.125,0,0,0-.043.011v-.505a.5.5,0,0,0-.5-.5h-2.508a.5.5,0,0,0-.5.5v1.72a.5.5,0,0,0,.5.5h2.508a.5.5,0,0,0,.5-.5v-1a.126.126,0,0,0,.055.011,21.718,21.718,0,0,0,7.458-1.611v7.795a.588.588,0,0,1-.58.581h-17.38a.581.581,0,0,1-.581-.581v-7.691a24.692,24.692,0,0,0,7.628,1.509h.006a.117.117,0,0,0,.006-.235,23.3,23.3,0,0,1-8.662-1.972l.011-5.476a.582.582,0,0,1,.581-.581h19.4a.581.581,0,0,1,.581.581l.011,5.335a20.544,20.544,0,0,1-8.493,2.112Zm-.278-.494v1.72a.27.27,0,0,1-.269.269h-2.508a.27.27,0,0,1-.269-.269v-1.72a.27.27,0,0,1,.269-.27h2.508A.27.27,0,0,1,156.592,108.713Z" transform="translate(-143.04 -96.264)" fill="#fff" stroke="#c9c9c9" stroke-width="1"/>
  </g>
</svg>
