<svg xmlns="http://www.w3.org/2000/svg" xmlns:xlink="http://www.w3.org/1999/xlink" width="23" height="24" viewBox="0 0 23 24">
  <defs>
    <clipPath id="clip-Job">
      <rect width="23" height="24"/>
    </clipPath>
  </defs>
  <g id="Job" clip-path="url(#clip-Job)">
    <g id="Group_6968" data-name="Group 6968" transform="translate(-12781.998 6440.501)">
      <g id="Group_6966" data-name="Group 6966" transform="translate(23353.979 -14890.001)">
        <path id="Path_7066" data-name="Path 7066" d="M10.6,26.042A2.962,2.962,0,0,0,13.558,29H25.482a2.962,2.962,0,0,0,2.959-2.958V18.683a2.8,2.8,0,0,0,.6-1.733V13.29a.238.238,0,0,0-.238-.238h-4.84V11.336A1.338,1.338,0,0,0,22.626,10H16.493a1.338,1.338,0,0,0-1.336,1.336v1.716H10.238A.238.238,0,0,0,10,13.29v3.66a2.8,2.8,0,0,0,.6,1.733Zm14.882,2.482H13.558a2.485,2.485,0,0,1-2.483-2.482v-6.88a2.8,2.8,0,0,0,1.744.608h5.233v1.46a.238.238,0,0,0,.238.238h2.539a.238.238,0,0,0,.238-.238V19.77h5.154a2.8,2.8,0,0,0,1.744-.608v6.88A2.485,2.485,0,0,1,25.482,28.524Zm-4.891-7.533H18.528V18.072h2.063Zm-4.958-9.656a.861.861,0,0,1,.86-.86h6.133a.861.861,0,0,1,.86.86v1.716h-1.21V11.713a.238.238,0,0,0-.238-.238H17.081a.238.238,0,0,0-.238.238v1.339h-1.21ZM21.8,13.052H17.319v-1.1H21.8Zm-11.325.476H28.564V16.95a2.332,2.332,0,0,1-.525,1.476.236.236,0,0,0-.016.021,2.339,2.339,0,0,1-1.8.847H21.067v-1.46a.238.238,0,0,0-.238-.238H18.29a.238.238,0,0,0-.238.238v1.46H12.82a2.339,2.339,0,0,1-1.8-.847A.234.234,0,0,0,11,18.426a2.332,2.332,0,0,1-.525-1.476Z" transform="translate(-10580 8442)" fill="#fff" stroke="#fff" stroke-width="0.5"/>
      </g>
    </g>
  </g>
</svg>
