<svg xmlns="http://www.w3.org/2000/svg" xmlns:xlink="http://www.w3.org/1999/xlink" width="68.05" height="69.56" viewBox="0 0 68.05 69.56">
  <defs>
    <clipPath id="clip-Job_Listing_Company_icon">
      <rect width="68.05" height="69.56"/>
    </clipPath>
  </defs>
  <g id="Job_Listing_Company_icon" data-name="Job Listing Company icon" clip-path="url(#clip-Job_Listing_Company_icon)">
    <g id="Group_6922" data-name="Group 6922" transform="translate(-15213 4284.066)">
      <rect id="Rectangle_8355" data-name="Rectangle 8355" width="68.048" height="69.564" transform="translate(15213 -4284.066)" fill="#fff"/>
      <g id="Group_6921" data-name="Group 6921" transform="translate(25803 -12714.066)">
        <path id="Path_7066" data-name="Path 7066" d="M10.853,32.8a4.209,4.209,0,0,0,4.2,4.2H32a4.209,4.209,0,0,0,4.2-4.2V22.339a3.983,3.983,0,0,0,.853-2.462v-5.2a.338.338,0,0,0-.338-.338H29.842V11.9a1.9,1.9,0,0,0-1.9-1.9H19.228a1.9,1.9,0,0,0-1.9,1.9v2.439H10.338a.338.338,0,0,0-.338.338v5.2a3.983,3.983,0,0,0,.853,2.462ZM32,36.325H15.057A3.532,3.532,0,0,1,11.529,32.8V23.02a3.984,3.984,0,0,0,2.478.864h7.436v2.074a.338.338,0,0,0,.338.338h3.608a.338.338,0,0,0,.338-.338V23.884h7.324a3.984,3.984,0,0,0,2.478-.864V32.8A3.532,3.532,0,0,1,32,36.325Zm-6.95-10.7H22.119V21.471h2.932ZM18.006,11.9a1.224,1.224,0,0,1,1.222-1.222h8.716A1.224,1.224,0,0,1,29.166,11.9v2.439H27.446v-1.9a.338.338,0,0,0-.338-.338H20.063a.338.338,0,0,0-.338.338v1.9H18.006Zm8.764,2.439H20.4V12.773H26.77Zm-16.093.676H36.382v4.863a3.314,3.314,0,0,1-.747,2.1.336.336,0,0,0-.023.029,3.324,3.324,0,0,1-2.56,1.2H25.728V21.133a.338.338,0,0,0-.338-.338H21.781a.338.338,0,0,0-.338.338v2.074H14.007a3.324,3.324,0,0,1-2.56-1.2.332.332,0,0,0-.023-.029,3.314,3.314,0,0,1-.747-2.1Z" transform="translate(-10580 8442)" stroke="#000" stroke-width="0.5"/>
      </g>
    </g>
  </g>
</svg>
