<svg xmlns="http://www.w3.org/2000/svg" xmlns:xlink="http://www.w3.org/1999/xlink" width="21" height="22" viewBox="0 0 21 22">
  <defs>
    <clipPath id="clip-Experiece">
      <rect width="21" height="22"/>
    </clipPath>
  </defs>
  <g id="Experiece" clip-path="url(#clip-Experiece)">
    <g id="Group_6920" data-name="Group 6920" transform="translate(10572 -8449.142)" opacity="0.5">
      <path id="Path_7066" data-name="Path 7066" d="M10.514,23.748a2.538,2.538,0,0,0,2.535,2.535H23.268A2.538,2.538,0,0,0,25.8,23.748V17.441a2.4,2.4,0,0,0,.514-1.485V12.82a.2.2,0,0,0-.2-.2H21.965V11.145A1.146,1.146,0,0,0,20.821,10H15.565a1.146,1.146,0,0,0-1.145,1.145v1.471H10.2a.2.2,0,0,0-.2.2v3.137a2.4,2.4,0,0,0,.514,1.485Zm12.754,2.127H13.05a2.13,2.13,0,0,1-2.128-2.127v-5.9a2.4,2.4,0,0,0,1.494.521H16.9v1.251a.2.2,0,0,0,.2.2H19.28a.2.2,0,0,0,.2-.2V18.373H23.9a2.4,2.4,0,0,0,1.494-.521v5.9A2.13,2.13,0,0,1,23.268,25.875ZM19.076,19.42H17.309v-2.5h1.768Zm-4.249-8.275a.738.738,0,0,1,.737-.737h5.256a.738.738,0,0,1,.737.737v1.471H20.521V11.468a.2.2,0,0,0-.2-.2H16.068a.2.2,0,0,0-.2.2v1.148H14.828Zm5.285,1.471H16.272v-.944h3.841Zm-9.7.408h15.5v2.933a2,2,0,0,1-.45,1.265.2.2,0,0,0-.014.018,2,2,0,0,1-1.544.726H19.484V16.714a.2.2,0,0,0-.2-.2H17.1a.2.2,0,0,0-.2.2v1.251H12.416a2,2,0,0,1-1.544-.726.2.2,0,0,0-.014-.018,2,2,0,0,1-.45-1.265Z" transform="translate(-10580 8442)" stroke="#000" stroke-width="0.5"/>
    </g>
  </g>
</svg>
