<svg xmlns="http://www.w3.org/2000/svg" xmlns:xlink="http://www.w3.org/1999/xlink" width="130" height="30" viewBox="0 0 130 30">
  <defs>
    <clipPath id="clip-Small">
      <rect width="130" height="30"/>
    </clipPath>
  </defs>
  <g id="Small" clip-path="url(#clip-Small)">
    <g id="Group_8931" data-name="Group 8931" transform="translate(2 1.979)">
      <g id="Group_1" data-name="Group 1">
        <path id="Path_1" data-name="Path 1" d="M-335.6,83.036h-18.631a3.71,3.71,0,0,1-3.706-3.706V60.7a3.71,3.71,0,0,1,3.706-3.706H-335.6a3.71,3.71,0,0,1,3.706,3.706V79.329A3.711,3.711,0,0,1-335.6,83.036Zm-18.631-24.814A2.479,2.479,0,0,0-356.7,60.7V79.329a2.479,2.479,0,0,0,2.476,2.477H-335.6a2.479,2.479,0,0,0,2.477-2.477V60.7a2.479,2.479,0,0,0-2.477-2.476Z" transform="translate(357.934 -56.992)" fill="#010202"/>
      </g>
      <g id="Group_2" data-name="Group 2" transform="translate(5.816 3.929)">
        <path id="Path_2" data-name="Path 2" d="M-336.432,74.375l-.01-.26-.017-.262-.024-.265-.031-.267-.036-.268-.043-.271-.051-.272-.057-.273-.063-.275-.07-.276-.076-.275-.082-.277-.088-.276-.094-.276-.1-.276-.106-.275-.112-.275-.117-.273-.123-.272-.127-.271-.133-.269-.139-.267-.143-.264-.148-.263-.153-.259-.157-.257-.162-.253-.166-.25-.171-.246-.175-.243-.178-.239-.182-.234-.185-.23-.189-.225-.193-.22-.2-.215-.2-.209-.2-.2-.2-.2-.206-.193-.208-.186-.21-.18-.212-.173-.214-.167-.214-.16-.217-.152-.218-.146-.219-.139-.221-.13-.221-.125-.221-.116-.221-.108-.222-.1-.222-.092-.223-.084-.221-.075-.222-.067-.221-.058-.221-.05-.221-.04-.218-.031-.218-.022-.216-.013-.231,0-.2.007-.211.016-.208.026-.206.036-.2.047-.2.057-.194.066-.192.077-.186.087-.181.1-.175.107-.17.116-.163.125-.157.134-.15.143-.143.152-.137.159-.128.167-.121.175-.114.181-.107.188-.1.194-.091.2-.084.206-.076.211-.069.217-.061.221-.054.226-.047.23-.039.235-.032.239-.025.243-.018.247-.011.25,0,.264,0,.247.009.26.018.262.023.265.03.267.038.269.043.271.051.272.057.273.063.275.07.275.076.275.081.276.089.277.094.276.1.276.106.275.111.275.116.273.123.272.128.271.133.269.139.266.143.266.148.262.152.26.157.256.162.253.166.251.17.246.175.242.179.239.181.234.186.229.189.225.193.219.2.216.2.208.2.2.2.2.205.192.208.186.211.18.211.173.214.166.215.16.216.153.219.146.218.139.221.131.221.124.221.116.221.108.223.1.221.092.223.084.221.075.223.067.221.058.221.049.22.041.219.031.218.022.216.013.23,0,.2-.007.212-.016.207-.025.206-.037.2-.046.2-.057.2-.066.19-.077.187-.087.181-.1.175-.107.17-.116.164-.125.157-.134.15-.143.143-.151.136-.16.129-.166.121-.175.114-.181.107-.188.1-.194.091-.2.084-.206.076-.212.068-.216.062-.221.053-.226.047-.231.039-.235.032-.239.025-.243.018-.247.011-.25,0-.264Zm-9.01-10.988.174.052.176.06.178.067.181.075.182.082.184.089.185.1.186.1.188.112.187.119.189.125.188.133.188.139.188.147.187.152.186.159.185.165.184.171.181.177.181.183.178.188.176.193.174.2.171.2.168.207.166.212.162.217.159.221.155.224.152.228.147.231.144.234.139.237.135.239.131.242.126.243.122.245.116.248.111.248.107.249.1.249.1.25.091.249.084.25.08.249.074.248.068.248.062.246.057.244.051.243.044.241.039.238.033.235.027.232.021.23.014.225.009.222,0,.217,0,.214-.009.208-.014.2-.021.2-.025.193-.031.188-.037.183-.042.175-.046.171-.052.164-.025.068-.071-.013-.168-.038-.171-.044-.174-.052-.176-.059-.178-.067-.181-.075-.183-.081-.183-.09-.186-.1-.187-.1-.186-.112-.189-.119-.187-.125-.189-.132-.187-.139-.189-.147-.186-.152-.186-.158-.185-.166-.184-.171-.182-.176-.18-.183-.179-.188-.176-.193-.174-.2-.171-.2-.169-.208-.165-.212-.162-.216-.159-.221-.155-.225-.152-.228-.148-.231-.143-.234-.14-.237-.135-.239-.13-.242-.127-.243-.121-.246-.117-.247-.111-.248-.107-.248-.1-.249-.1-.25-.091-.25-.085-.249-.08-.25-.074-.248-.068-.247-.062-.246-.056-.245-.052-.243-.045-.24-.038-.239-.033-.235-.027-.232-.021-.23-.015-.225-.008-.222,0-.217,0-.213.008-.209.015-.2.02-.2.026-.193.031-.189.036-.182.041-.176.047-.171.052-.165.024-.068.071.014.168.037Zm6.347,14.591-.1.079-.1.073-.109.066-.112.061-.115.054-.12.049-.122.043-.127.036-.13.031-.134.024-.139.019-.142.011-.148,0-.151,0-.153-.009-.158-.016-.162-.023-.165-.03-.168-.038-.171-.044-.175-.052-.176-.06-.179-.067-.18-.074-.183-.083-.184-.089-.185-.1-.187-.1-.187-.111-.188-.118-.188-.126-.188-.132-.188-.139-.188-.146-.186-.152-.187-.159-.184-.165-.184-.171-.182-.177-.18-.182-.178-.189-.176-.193-.174-.2-.171-.2-.168-.207-.166-.212-.161-.217-.16-.221-.155-.225-.152-.228-.148-.231-.143-.234-.14-.237-.135-.239-.131-.241-.126-.243-.121-.246-.117-.247-.112-.248-.107-.248-.1-.25-.1-.249-.092-.25-.085-.25-.079-.248-.074-.249-.068-.247-.062-.247-.057-.244-.051-.242-.045-.241-.039-.238-.033-.236-.027-.232-.02-.23-.015-.225-.008-.222,0-.218,0-.214.007-.207.016-.2.02-.2.026-.194.031-.188.036-.182.041-.177.048-.171.052-.164.057-.157.061-.152.065-.145.07-.138.074-.131.079-.125.081-.118.085-.111.088-.1.092-.1.1-.091.1-.085.1-.079.106-.072.108-.066.112-.061.116-.055.119-.048.123-.043.017,0-.048.2-.048.231-.039.235-.033.239-.025.243-.017.247-.011.25,0,.264,0,.247.011.26.016.262.023.265.03.267.038.268.044.271.05.272.057.274.064.274.069.275.076.276.081.276.089.277.093.276.1.276.106.275.112.275.116.273.123.272.128.271.133.269.139.267.143.265.148.262.152.259.158.257.161.253.166.25.171.246.174.243.179.238.181.234.186.23.189.225.193.22.2.214.2.21.2.2.2.2.206.193.208.186.21.18.212.173.214.167.214.159.217.153.218.146.219.139.22.131.221.124.222.116.221.108.222.1.222.092.222.084.222.075.222.067h0L-339,77.9Z" transform="translate(350.84 -61.784)"/>
      </g>
      <g id="Group_3" data-name="Group 3" transform="translate(33.94 0.309)">
        <path id="Path_3" data-name="Path 3" d="M-304.424,57.369c7.208,0,12.111,5.416,12.111,12.624s-4.9,12.624-12.111,12.624c-7.246,0-12.111-5.416-12.111-12.624s4.867-12.624,12.111-12.624m0,2.708c-5.489,0-8.965,4.207-8.965,9.916,0,5.672,3.476,9.916,8.965,9.916,5.452,0,8.965-4.244,8.965-9.916,0-5.708-3.513-9.916-8.965-9.916" transform="translate(316.535 -57.369)"/>
      </g>
      <g id="Group_4" data-name="Group 4" transform="translate(62.811 0.712)">
        <rect id="Rectangle_1" data-name="Rectangle 1" width="2.745" height="24.406"/>
      </g>
      <g id="Group_5" data-name="Group 5" transform="translate(70.019 7.005)">
        <path id="Path_4" data-name="Path 4" d="M-272.527,74.795c0-5.123,3.366-9.258,8.745-9.258s8.745,4.134,8.745,9.258-3.366,9.294-8.745,9.294-8.745-4.171-8.745-9.294m14.6,0c0-3.586-2.086-6.806-5.854-6.806s-5.891,3.22-5.891,6.806c0,3.623,2.123,6.842,5.891,6.842s5.854-3.219,5.854-6.842" transform="translate(272.527 -65.537)"/>
      </g>
      <g id="Group_6" data-name="Group 6" transform="translate(91.974 7.445)">
        <path id="Path_5" data-name="Path 5" d="M-233.818,81.258a8.644,8.644,0,0,1-6.294,2.928c-3.7,0-5.635-1.793-5.635-5.636V66.073H-243V77.709c0,3.11,1.573,4.025,3.951,4.025a6.761,6.761,0,0,0,5.233-2.671V66.073h2.745V83.746h-2.745Z" transform="translate(245.747 -66.073)"/>
      </g>
      <g id="Group_7" data-name="Group 7" transform="translate(110.598 7.006)">
        <path id="Path_6" data-name="Path 6" d="M-221.6,79.332a8.008,8.008,0,0,0,5.818,2.525c2.707,0,4.171-1.208,4.171-2.927,0-1.939-2.159-2.562-4.538-3.147-3-.694-6.4-1.5-6.4-5.159,0-2.744,2.378-5.085,6.586-5.085a8.94,8.94,0,0,1,6.55,2.561L-210.7,70a6.887,6.887,0,0,0-5.27-2.232c-2.414,0-3.915,1.1-3.915,2.671,0,1.72,2.013,2.268,4.317,2.818,3.074.7,6.623,1.574,6.623,5.489,0,2.964-2.378,5.342-6.952,5.342a9.4,9.4,0,0,1-7.135-2.781Z" transform="translate(223.03 -65.538)"/>
      </g>
    </g>
  </g>
</svg>
