<svg xmlns="http://www.w3.org/2000/svg" xmlns:xlink="http://www.w3.org/1999/xlink" width="202" height="46" viewBox="0 0 202 46">
  <defs>
    <clipPath id="clip-Big">
      <rect width="202" height="46"/>
    </clipPath>
  </defs>
  <g id="Big" clip-path="url(#clip-Big)">
    <g id="Group_8944" data-name="Group 8944" transform="translate(2.558 2)">
      <g id="Group_1" data-name="Group 1">
        <path id="Path_1" data-name="Path 1" d="M-322.663,98.116h-29.42a5.859,5.859,0,0,1-5.851-5.853V62.843a5.858,5.858,0,0,1,5.851-5.851h29.42a5.858,5.858,0,0,1,5.853,5.851v29.42A5.859,5.859,0,0,1-322.663,98.116Zm-29.42-39.182a3.914,3.914,0,0,0-3.91,3.91v29.42a3.915,3.915,0,0,0,3.91,3.911h29.42a3.915,3.915,0,0,0,3.911-3.911V62.843a3.915,3.915,0,0,0-3.911-3.91Z" transform="translate(357.934 -56.992)" fill="#010202"/>
      </g>
      <g id="Group_2" data-name="Group 2" transform="translate(9.184 6.204)">
        <path id="Path_2" data-name="Path 2" d="M-328.088,81.666l-.016-.41-.027-.414-.038-.418-.049-.422-.057-.423-.069-.427-.08-.43-.089-.431-.1-.434-.11-.436-.12-.435-.129-.438-.139-.436-.149-.436-.158-.436-.167-.435-.176-.434-.185-.431-.194-.43-.2-.428-.21-.425-.219-.422-.227-.417-.234-.416-.241-.409-.249-.405-.256-.4-.261-.395-.269-.388-.276-.383-.281-.377-.287-.369-.293-.362-.3-.355-.3-.347-.308-.339-.312-.33-.317-.321-.321-.312-.325-.3-.329-.294-.331-.284-.335-.273-.338-.264-.338-.252-.343-.241-.344-.23-.346-.22-.348-.206-.348-.2-.349-.183-.35-.171-.351-.159-.351-.145-.352-.132-.349-.119-.351-.106-.35-.092-.35-.079-.348-.063-.344-.049-.344-.035-.342-.021-.365-.005-.311.01-.333.026-.329.041-.325.057-.32.074-.315.089-.307.1-.3.122-.294.137-.286.153-.277.17-.269.183-.258.2-.249.212-.237.227-.227.239-.216.251-.2.264-.192.276-.18.286-.168.3-.157.307-.144.316-.133.325-.12.333-.109.343-.1.35-.085.357-.074.364-.062.372-.05.378-.039.384-.028.39-.017.395-.005.417.005.39.014.41.028.413.036.418.048.422.06.425.069.427.08.43.089.431.1.434.11.435.12.435.128.436.14.438.149.436.158.436.167.435.176.434.184.431.194.43.2.429.21.425.219.421.225.419.234.414.241.41.249.4.256.4.263.4.268.388.276.382.282.377.286.37.294.361.3.356.3.346.308.34.312.329.317.322.321.313.324.3.329.294.333.284.334.273.338.263.339.252.342.242.346.23.344.219.348.207.348.2.35.184.349.171.352.158.35.145.352.133.35.119.352.106.348.092.35.078.347.065.346.049.344.035.342.021.364.005.312-.01.334-.026.327-.04.325-.058.32-.072.315-.091.308-.1.3-.122.3-.137.286-.153.277-.17.268-.183.259-.2.249-.212.237-.227.227-.238.215-.252.2-.263.192-.276.18-.286.168-.3.157-.307.144-.316.132-.325.12-.334.107-.342.1-.35.084-.357.074-.365.062-.372.051-.378.039-.383.028-.39.017-.395.007-.417Zm-14.227-17.351.274.082.278.095.281.106.286.118.287.129.29.141.293.153.294.164.3.176.3.188.3.2.3.21.3.219.3.232.3.241.294.251.291.26.29.271.286.28.286.289.281.3.278.306.274.313.271.322.265.328.262.335.256.343.251.35.245.353.241.36.232.365.228.37.22.374.214.378.207.382.2.384.193.387.184.391.176.391.168.394.161.394.151.395.144.394.133.395.127.394.117.392.107.391.1.388.089.386.08.383.07.381.061.375.052.372.043.366.034.362.022.356.014.351.005.343-.005.338-.014.329-.022.321-.032.316-.04.306-.049.3-.058.289-.066.277-.073.271-.083.259-.039.107-.111-.021-.265-.06-.271-.07-.274-.083-.278-.093-.281-.106-.286-.119-.289-.128-.289-.142-.294-.153-.3-.164-.294-.176-.3-.188-.3-.2-.3-.208-.3-.22-.3-.232-.294-.241-.294-.25-.291-.261-.291-.271-.287-.278-.284-.289-.282-.3-.278-.306-.274-.313-.269-.322-.267-.329-.26-.335-.256-.342-.251-.348-.245-.355-.241-.36-.233-.365-.227-.369-.221-.374-.214-.378-.206-.382-.2-.384-.192-.388-.185-.39-.175-.392-.168-.392-.161-.394-.151-.395-.144-.395-.135-.394-.126-.395-.117-.392-.107-.39-.1-.388-.088-.387-.082-.383-.071-.379-.06-.377-.052-.372-.043-.366-.032-.362-.023-.356-.013-.351-.005-.343.005-.337.013-.33.023-.322.031-.315.041-.306.049-.3.057-.287.065-.278.075-.269.083-.26.038-.107.113.022.265.058Zm10.022,23.04-.161.124-.166.115-.172.1-.176.1-.181.085-.189.078-.193.067-.2.057-.206.049-.212.038-.22.03-.224.018-.233.008-.238,0-.242-.014-.25-.025-.256-.036-.26-.047-.265-.06-.269-.07-.276-.083-.278-.095-.282-.106-.283-.117-.289-.131-.291-.141-.291-.153-.3-.164-.3-.176-.3-.186-.3-.2-.3-.208-.3-.22-.3-.23-.294-.241-.3-.251-.291-.26-.29-.271-.287-.28-.285-.287-.281-.3-.278-.306-.274-.313-.271-.322-.265-.328-.261-.335-.255-.343-.252-.348-.245-.355-.239-.36-.233-.365-.227-.37-.221-.374-.214-.378-.207-.381-.2-.384-.192-.388-.185-.39-.176-.392-.168-.392-.16-.395-.15-.394-.145-.395-.133-.395-.126-.392-.116-.394L-348,74.3l-.1-.39-.089-.386-.08-.382-.071-.381-.061-.375-.052-.373-.043-.366-.032-.362-.023-.355-.013-.351-.005-.344.005-.338.012-.328.025-.322.031-.315.041-.307.049-.3.057-.287.065-.28.075-.269.082-.259.091-.249.1-.24.1-.229.11-.217.117-.207.124-.2.128-.186.135-.175.139-.164.145-.154.15-.144.155-.135.161-.124.167-.114.171-.1.176-.1.183-.087.188-.076.194-.067.027-.008-.076.322-.075.365-.061.372-.052.377-.039.384-.027.39-.017.395-.007.417.005.39.017.41.026.414.036.418.048.422.06.423.07.427.079.43.089.432.1.432.109.435.12.436.128.436.141.438.148.436.158.436.167.435.176.434.184.431.194.43.2.428.21.425.219.422.227.418.234.414.239.409.25.405.255.4.263.395.269.388.274.383.282.375.286.37.294.362.3.355.3.347.308.338.312.331.317.321.321.312.325.3.329.294.331.283.335.273.338.264.338.251.343.242.344.23.346.219.347.207.348.2.351.184.35.171.351.158.351.145.351.133.351.119.351.106h.005l-.022.018Z" transform="translate(350.84 -61.784)"/>
      </g>
      <g id="Group_3" data-name="Group 3" transform="translate(53.593 0.488)">
        <path id="Path_3" data-name="Path 3" d="M-297.411,57.369c11.382,0,19.123,8.552,19.123,19.933s-7.741,19.933-19.123,19.933c-11.441,0-19.124-8.552-19.124-19.933s7.684-19.933,19.124-19.933m0,4.276c-8.667,0-14.156,6.644-14.156,15.658,0,8.956,5.489,15.658,14.156,15.658,8.609,0,14.156-6.7,14.156-15.658,0-9.014-5.547-15.658-14.156-15.658" transform="translate(316.535 -57.369)"/>
      </g>
      <g id="Group_4" data-name="Group 4" transform="translate(99.181 1.124)">
        <rect id="Rectangle_1" data-name="Rectangle 1" width="4.334" height="38.537"/>
      </g>
      <g id="Group_5" data-name="Group 5" transform="translate(110.564 11.062)">
        <path id="Path_4" data-name="Path 4" d="M-272.527,80.155c0-8.09,5.315-14.618,13.809-14.618s13.809,6.528,13.809,14.618-5.315,14.676-13.809,14.676-13.809-6.587-13.809-14.676m23.053,0c0-5.662-3.293-10.747-9.244-10.747s-9.3,5.085-9.3,10.747c0,5.721,3.352,10.8,9.3,10.8s9.244-5.084,9.244-10.8" transform="translate(272.527 -65.537)"/>
      </g>
      <g id="Group_6" data-name="Group 6" transform="translate(145.232 11.756)">
        <path id="Path_5" data-name="Path 5" d="M-226.911,90.051a13.65,13.65,0,0,1-9.938,4.623c-5.836,0-8.9-2.831-8.9-8.9v-19.7h4.334V84.447c0,4.912,2.484,6.355,6.238,6.355a10.676,10.676,0,0,0,8.263-4.218V66.073h4.334V93.98h-4.334Z" transform="translate(245.747 -66.073)"/>
      </g>
      <g id="Group_7" data-name="Group 7" transform="translate(174.64 11.063)">
        <path id="Path_6" data-name="Path 6" d="M-220.776,87.319a12.645,12.645,0,0,0,9.187,3.987c4.275,0,6.587-1.907,6.587-4.622,0-3.062-3.41-4.045-7.165-4.97-4.738-1.1-10.11-2.369-10.11-8.147,0-4.333,3.756-8.03,10.4-8.03a14.117,14.117,0,0,1,10.342,4.044l-2.021,3a10.875,10.875,0,0,0-8.321-3.525c-3.812,0-6.181,1.733-6.181,4.218,0,2.716,3.178,3.582,6.817,4.449,4.853,1.1,10.457,2.486,10.457,8.667,0,4.68-3.755,8.435-10.978,8.435-4.563,0-8.435-1.386-11.266-4.391Z" transform="translate(223.03 -65.538)"/>
      </g>
    </g>
  </g>
</svg>
