<svg xmlns="http://www.w3.org/2000/svg" xmlns:xlink="http://www.w3.org/1999/xlink" width="54" height="54" viewBox="0 0 54 54">
  <defs>
    <clipPath id="clip-Olous">
      <rect width="54" height="54"/>
    </clipPath>
  </defs>
  <g id="Olous" clip-path="url(#clip-Olous)">
    <g id="Group_11224" data-name="Group 11224" transform="translate(1 0.588)">
      <rect id="Rectangle_30" data-name="Rectangle 30" width="52.31" height="52.31" rx="9" transform="translate(0)"/>
      <path id="Path_9" data-name="Path 9" d="M-5061.934,331.6l-.018-.449-.03-.453-.04-.457-.053-.461-.064-.465-.076-.467-.086-.47-.1-.472-.109-.474-.12-.476-.132-.477-.143-.478-.152-.478-.162-.478-.173-.477-.181-.476-.194-.475-.2-.473-.212-.47-.22-.468-.231-.465-.238-.461-.248-.458-.257-.453-.263-.448-.272-.443-.28-.438-.286-.432-.3-.426-.3-.419-.309-.412-.314-.4-.32-.4-.326-.388-.333-.38-.336-.371-.342-.361-.348-.352-.351-.342-.355-.332-.36-.321-.362-.311-.367-.3-.37-.288-.372-.276-.374-.264-.376-.252-.378-.24-.381-.227-.381-.214-.381-.2-.383-.187-.384-.173-.384-.159-.385-.145-.382-.131-.383-.116-.384-.1-.38-.086-.38-.07-.379-.054-.375-.038-.375-.022-.4-.006-.34.012-.364.028-.36.045-.356.063-.35.08-.344.1-.338.116-.329.133-.322.15-.313.168-.3.184-.293.2-.283.217-.271.232-.261.247-.249.262-.235.275-.223.289-.211.3-.2.313-.184.325-.171.335-.159.346-.144.356-.132.365-.119.374-.105.383-.093.391-.082.4-.067.406-.057.413-.042.42-.031.426-.018.433-.006.455,0,.427.019.448.028.453.042.457.052.461.064.464.077.468.085.47.1.473.108.474.121.476.13.477.142.478.154.478.162.478.173.477.183.476.192.475.2.473.211.471.221.468.232.465.236.461.249.457.257.453.264.448.271.443.28.438.288.432.293.426.3.419.307.412.314.4.32.4.326.388.333.38.338.371.342.361.347.352.351.342.354.332.359.321.363.311.366.3.371.288.371.276.375.264.375.252.379.24.378.227.383.214.382.2.383.187.386.173.385.159.382.145.384.131.384.116.382.1.382.085.38.07.378.054.377.038.374.022.4.006.339-.012.365-.028.36-.045.355-.063.35-.08.342-.1.338-.115.33-.133.322-.15.312-.167.3-.184.294-.2.284-.217.271-.232.261-.247.246-.262.236-.276.223-.288.21-.3.2-.313.184-.324.172-.336.157-.346.145-.356.133-.365.117-.374.106-.383.093-.391.081-.4.068-.406.056-.413.042-.42.031-.427.018-.432.009-.455Zm-15.568-18.986.3.09.3.1.308.116.314.129.314.142.319.155.32.167.322.18.323.193.325.2.323.217.325.229.325.241.324.252.322.264.322.274.32.285.316.3.314.306.311.316.309.325.3.334.3.343.3.352.292.359.286.367.28.374.275.382.27.387.26.394.256.4.249.4.241.409.233.414.228.417.218.421.209.423.2.427.2.428.184.43.175.431.164.432.157.432.147.431.137.431.128.43.117.427.109.425.1.423.086.419.076.416.067.411.057.407.046.4.037.4.026.39.015.383,0,.376,0,.369-.015.361-.023.353-.037.344-.045.335-.054.325-.062.315-.072.305-.081.295-.089.284-.042.117-.123-.022-.292-.065-.3-.077-.3-.09-.305-.1-.308-.116-.312-.129-.315-.142-.318-.155-.32-.167-.321-.18-.324-.192-.325-.205-.325-.217-.325-.229-.324-.241-.324-.252-.324-.264-.321-.274-.318-.285-.317-.3-.315-.306-.312-.316-.309-.325-.3-.334-.3-.343-.3-.352-.29-.36-.288-.367-.28-.375-.275-.381-.269-.388-.262-.394-.255-.4-.249-.4-.243-.409-.233-.414-.226-.417-.218-.421-.21-.424-.2-.427-.194-.428-.183-.43-.175-.431-.167-.432-.155-.432-.148-.431-.137-.431-.127-.429-.119-.427-.106-.425-.1-.423-.088-.419-.077-.415-.067-.412-.058-.407-.046-.4-.037-.4-.024-.39-.014-.383-.007-.376.007-.369.014-.361.024-.352.037-.344.043-.335.054-.325.063-.315.071-.305.081-.295.089-.284.042-.117.123.022.29.065Zm10.968,25.212-.175.136-.183.125-.187.115-.193.1-.2.094-.205.084-.212.074-.22.063-.226.053-.234.042-.238.031-.246.02-.254.009-.26,0-.267-.015-.273-.027-.278-.039-.284-.052-.292-.065-.295-.077-.3-.09-.3-.1-.309-.116-.313-.129-.314-.142-.317-.155-.32-.167-.323-.18-.323-.193-.324-.2-.325-.217-.327-.229-.324-.241-.323-.252-.323-.263-.322-.275-.319-.285-.316-.3-.316-.306-.312-.316-.308-.325-.3-.334-.3-.343-.3-.351-.29-.36-.285-.367-.281-.374-.273-.381-.27-.388-.262-.394-.255-.4-.248-.4-.241-.41-.235-.414-.227-.417-.217-.421-.21-.424-.2-.427-.192-.428-.184-.43-.174-.431-.167-.432-.156-.431-.147-.432-.138-.431-.127-.429-.116-.428-.108-.425-.1-.422-.087-.42-.077-.415-.066-.411-.057-.407-.047-.4-.037-.4-.025-.39-.016-.383,0-.376,0-.369.016-.361.025-.353.035-.344.042-.335.054-.325.065-.315.072-.305.08-.295.09-.284.1-.273.106-.261.112-.25.121-.238.129-.227.133-.215.14-.2.147-.192.152-.18.159-.169.165-.158.169-.147.176-.136.18-.125.19-.115.192-.1.2-.094.207-.084.213-.074.03-.009-.084.353-.082.4-.068.406-.056.413-.042.42-.031.427-.02.432-.006.455.006.427.017.449.03.453.041.457.052.461.064.464.076.468.086.47.1.472.108.474.12.476.131.477.142.478.152.478.161.478.174.477.182.476.193.475.2.473.211.471.221.468.23.465.237.461.249.458.256.453.264.448.272.443.279.438.288.432.3.426.3.419.308.412.315.4.32.4.326.388.332.38.339.371.341.362.346.352.351.342.356.332.36.321.362.31.366.3.37.288.371.276.375.264.377.252.377.239.38.227.382.214.382.2.383.187.384.173.384.159.383.145.385.131.383.116h0l-.021.021Z" transform="translate(5100.067 -299.127)" fill="#fff"/>
    </g>
  </g>
</svg>
