<svg xmlns="http://www.w3.org/2000/svg" xmlns:xlink="http://www.w3.org/1999/xlink" width="160" height="37" viewBox="0 0 160 37">
  <defs>
    <clipPath id="clip-Olous_logo">
      <rect width="160" height="37"/>
    </clipPath>
  </defs>
  <g id="Olous_logo" clip-path="url(#clip-Olous_logo)">
    <g id="Group_8743" data-name="Group 8743" transform="translate(2 2.088)">
      <g id="Group_8741" data-name="Group 8741" transform="translate(0 0)">
        <g id="Group_8496" data-name="Group 8496" transform="translate(0)">
          <rect id="Rectangle_6577" data-name="Rectangle 6577" width="32.087" height="32.087" rx="3" fill="none" stroke="#000" stroke-miterlimit="10" stroke-width="1"/>
          <g id="Group_5307" data-name="Group 5307" transform="translate(7.023 4.661)">
            <path id="Path_6919" data-name="Path 6919" d="M4804.792-2832.378l-.013-.325-.021-.329-.03-.331-.038-.334-.047-.336-.055-.339-.063-.341-.071-.343-.078-.343-.087-.345-.1-.345-.1-.346-.11-.346-.119-.347-.125-.346-.132-.345-.14-.344-.146-.343-.152-.34-.161-.34-.167-.336-.174-.334-.177-.331-.186-.329-.191-.324-.2-.322-.2-.317-.208-.312-.211-.309-.22-.3-.221-.3-.229-.292-.231-.287-.238-.281-.239-.275-.245-.269-.248-.262-.251-.255-.254-.248-.258-.24-.261-.233-.263-.224-.267-.217-.266-.21-.269-.2-.271-.192-.274-.183-.273-.173-.276-.164-.276-.155-.277-.145-.278-.136-.277-.126-.278-.115-.279-.1-.276-.095-.279-.084-.276-.073-.277-.062-.275-.051-.274-.04-.272-.027-.271-.017-.291-.005-.243.01-.267.02-.26.034-.259.044-.252.06-.25.07-.243.083-.239.1-.234.109-.226.121-.222.134-.211.145-.2.158-.2.168-.188.178-.179.19-.173.2-.161.21-.151.217-.144.227-.133.235-.123.244-.114.25-.105.258-.1.265-.087.27-.076.278-.067.283-.059.289-.051.3-.038.3-.033.3-.022.309-.012.313,0,.33,0,.309.012.325.022.328.027.331.04.334.047.337.055.339.063.341.071.342.079.343.087.345.1.346.1.346.111.346.116.345.125.347.132.345.139.343.146.343.154.341.161.339.166.336.174.335.179.331.185.328.19.325.2.321.2.318.209.312.212.308.219.3.222.3.227.292.233.286.236.282.241.275.244.268.249.261.249.256.255.247.257.241.261.232.263.225.265.218.269.208.269.2.271.192.272.182.275.174.274.164.277.154.277.145.278.136.277.125.278.116.277.1.279.1.278.083.276.073.276.063.275.051.275.039.272.028.27.016.291,0,.245-.009.264-.019.26-.033.26-.046.252-.057.249-.071.244-.084.238-.1.234-.109.225-.122.221-.132.213-.146.205-.157.194-.168.191-.18.179-.189.171-.2.162-.21.151-.218.142-.226.133-.235.124-.243.114-.252.106-.256.1-.266.085-.271.076-.277.068-.283.06-.289.048-.3.042-.3.029-.3.023-.309.014-.313,0-.33Zm-11.278-13.754.217.065.22.073.226.085.224.093.23.1.23.113.231.12.233.131.234.139.234.149.235.157.236.165.236.175.234.183.233.192.234.2.23.207.23.213.227.222.226.228.224.236.219.242.219.249.213.254.212.26.206.267.2.271.2.276.194.281.19.286.185.289.179.293.176.3.169.3.164.3.158.3.153.307.146.309.141.31.132.312.127.313.119.312.113.313.108.312.1.312.093.312.084.31.081.308.068.306.063.3.056.3.049.3.04.294.034.291.026.287.018.283.012.277,0,.273,0,.266-.012.262-.018.255-.023.25-.033.241-.04.237-.046.229-.052.221-.059.213-.065.205-.03.085-.089-.015-.21-.048-.214-.056-.217-.065-.221-.074-.224-.085-.226-.093-.229-.1-.23-.111-.231-.122-.234-.13-.232-.14-.237-.149-.235-.158-.235-.166-.235-.174-.235-.183-.234-.192-.233-.2-.231-.206-.229-.214-.227-.221-.227-.229-.223-.236-.222-.242-.215-.249-.215-.255-.209-.261-.207-.266-.2-.271-.2-.276-.194-.281-.191-.286-.183-.29-.183-.293-.172-.3-.171-.3-.164-.3-.159-.3-.152-.307-.146-.309-.14-.311-.132-.312-.127-.313-.121-.313-.113-.313-.106-.312-.1-.312-.094-.311-.084-.31-.079-.307-.07-.308-.064-.3-.055-.3-.048-.3-.041-.295-.034-.29-.025-.287-.019-.282-.013-.278,0-.272,0-.267.013-.261.017-.255.024-.25.034-.243.037-.235.046-.228.052-.222.06-.213.063-.205.031-.085.089.016.211.047Zm7.946,18.264-.129.1-.13.09-.136.083-.14.076-.146.069-.148.061-.153.053-.16.046-.164.039-.167.03-.175.023-.178.015-.184.005-.188,0-.193-.01-.2-.02-.2-.028-.206-.038-.21-.047-.215-.056-.216-.064-.22-.075-.224-.084-.227-.093-.227-.1-.233-.113-.231-.12-.233-.132-.234-.138-.235-.149-.234-.157-.236-.166-.236-.174-.233-.183-.235-.19-.233-.2-.231-.207-.23-.214-.228-.221-.227-.229-.221-.235-.222-.243-.216-.248-.215-.255-.21-.26-.205-.267-.2-.271-.2-.277-.194-.281-.19-.286-.187-.288-.177-.294-.177-.3-.167-.3-.164-.3-.16-.305-.151-.308-.147-.308-.139-.311-.134-.311-.126-.313-.118-.313-.115-.312-.108-.313-.1-.312-.093-.311-.084-.309-.078-.309-.071-.306-.063-.3-.057-.3-.048-.3-.041-.294-.033-.291-.027-.287-.02-.283-.011-.277,0-.272,0-.267.011-.261.02-.256.024-.25.034-.242.039-.236.044-.229.054-.221.057-.213.065-.205.071-.2.078-.191.082-.18.085-.174.093-.164.1-.155.1-.147.107-.139.111-.131.113-.122.119-.114.124-.107.126-.1.132-.091.136-.083.141-.077.143-.068.15-.061.153-.053.021-.006-.06.256-.06.289-.048.295-.041.3-.032.305-.023.309-.012.313-.005.33,0,.308.013.326.021.328.029.331.038.334.047.335.055.339.063.342.071.342.079.343.088.345.094.345.1.346.109.347.118.346.126.345.131.345.14.343.148.343.151.342.161.338.168.338.172.333.18.333.185.328.192.325.2.321.2.318.207.313.214.308.219.3.223.3.226.293.233.287.237.281.241.275.243.269.25.261.251.255.253.248.259.241.259.232.263.226.265.217.269.208.269.2.271.192.272.183.275.173.275.165.276.155.276.145.278.135.276.125.28.116.277.1.278.1.278.084h0l-.017.015Z" transform="translate(-4786.755 2848.14)" fill="#050505"/>
          </g>
          <g id="Group_5308" data-name="Group 5308" transform="translate(42.229 0.131)">
            <path id="Path_6920" data-name="Path 6920" d="M4945.953-2866.673c9.023,0,15.161,6.778,15.161,15.8s-6.138,15.8-15.161,15.8c-9.069,0-15.16-6.778-15.16-15.8S4936.884-2866.673,4945.953-2866.673Zm0,3.389c-6.871,0-11.224,5.268-11.224,12.413,0,7.1,4.353,12.413,11.224,12.413,6.826,0,11.223-5.312,11.223-12.413C4957.176-2858.017,4952.779-2863.284,4945.953-2863.284Z" transform="translate(-4930.793 2866.673)" fill="#050505"/>
            <path id="Path_6921" data-name="Path 6921" d="M5078.648-2864.612h3.436v30.549h-3.436Z" transform="translate(-5042.51 2865.115)" fill="#050505"/>
            <path id="Path_6922" data-name="Path 6922" d="M5115.564-2820.791c0-6.413,4.214-11.588,10.947-11.588s10.948,5.175,10.948,11.588-4.214,11.633-10.948,11.633S5115.564-2814.38,5115.564-2820.791Zm18.276,0c0-4.489-2.611-8.52-7.33-8.52s-7.373,4.031-7.373,8.52c0,4.535,2.655,8.564,7.373,8.564S5133.84-2816.256,5133.84-2820.791Z" transform="translate(-5070.401 2840.761)" fill="#050505"/>
            <path id="Path_6923" data-name="Path 6923" d="M5242.931-2811.123a10.825,10.825,0,0,1-7.878,3.664c-4.626,0-7.053-2.245-7.053-7.055v-15.618h3.435v14.566c0,3.893,1.97,5.037,4.947,5.037a8.463,8.463,0,0,0,6.55-3.343v-16.26h3.436v22.123h-3.436Z" transform="translate(-5155.355 2839.063)" fill="#050505"/>
            <path id="Path_6924" data-name="Path 6924" d="M5325.169-2815.112a10.026,10.026,0,0,0,7.283,3.16c3.389,0,5.222-1.511,5.222-3.664,0-2.429-2.7-3.207-5.679-3.939-3.757-.87-8.017-1.878-8.017-6.458,0-3.435,2.978-6.366,8.243-6.366a11.193,11.193,0,0,1,8.2,3.206l-1.6,2.382a8.623,8.623,0,0,0-6.6-2.795c-3.021,0-4.9,1.374-4.9,3.344,0,2.152,2.519,2.839,5.4,3.527,3.848.87,8.29,1.969,8.29,6.87,0,3.71-2.977,6.687-8.7,6.687a11.764,11.764,0,0,1-8.933-3.481Z" transform="translate(-5227.425 2840.761)" fill="#050505"/>
          </g>
        </g>
      </g>
    </g>
  </g>
</svg>
