<svg xmlns="http://www.w3.org/2000/svg" xmlns:xlink="http://www.w3.org/1999/xlink" width="22" height="23" viewBox="0 0 22 23">
  <defs>
    <clipPath id="clip-Star1">
      <rect width="22" height="23"/>
    </clipPath>
  </defs>
  <g id="Star1" clip-path="url(#clip-Star1)">
    <path id="Path_10597" data-name="Path 10597" d="M112.338,453.02l-4.314-2.4a.039.039,0,0,0-.039,0l-4.313,2.409a1.162,1.162,0,0,1-1.663-1.281l.822-5.1a.047.047,0,0,0-.013-.039l-3.676-3.8a1.1,1.1,0,0,1,.564-1.844l5.077-.786a.042.042,0,0,0,.032-.024l2.154-4.639a1.118,1.118,0,0,1,2.055,0l2.159,4.637a.042.042,0,0,0,.032.024l5.078.781a1.1,1.1,0,0,1,.565,1.844l-3.672,3.8a.046.046,0,0,0-.012.039l.826,5.1A1.162,1.162,0,0,1,112.338,453.02Z" transform="translate(-97.334 -432.333)" fill="none" stroke="#333" stroke-linecap="round" stroke-linejoin="round" stroke-width="1"/>
  </g>
</svg>
