<svg xmlns="http://www.w3.org/2000/svg" xmlns:xlink="http://www.w3.org/1999/xlink" width="18" height="18" viewBox="0 0 18 18">
  <defs>
    <clipPath id="clip-UPgrade">
      <rect width="18" height="18"/>
    </clipPath>
  </defs>
  <g id="UPgrade" clip-path="url(#clip-UPgrade)">
    <g id="Group_18988" data-name="Group 18988" transform="translate(-1974 -7995.5)">
      <circle id="Ellipse_1386" data-name="Ellipse 1386" cx="8" cy="8" r="8" transform="translate(1975 7996.5)" fill="#fff"/>
      <path id="Path_18354" data-name="Path 18354" d="M5.8,9.7V9.1a.3.3,0,0,0-.6,0v.6a.3.3,0,0,0,.6,0ZM4.941,1.322,3.812,3.306l-2.293.432a.637.637,0,0,0-.487.422.624.624,0,0,0,.143.631L2.764,6.446,2.479,8.691a.626.626,0,0,0,.262.591.649.649,0,0,0,.641.06L5.5,8.381l2.118.961a.649.649,0,0,0,.641-.06.626.626,0,0,0,.262-.591L8.236,6.446,9.825,4.791a.624.624,0,0,0,.143-.631.637.637,0,0,0-.488-.422L7.188,3.306,6.058,1.322a.645.645,0,0,0-1.117,0Zm.521.3a.045.045,0,0,1,.074,0l1.2,2.1a.3.3,0,0,0,.205.146l2.429.458a.037.037,0,0,1,.03.023.025.025,0,0,1-.007.025L7.7,6.134a.3.3,0,0,0-.081.246l.3,2.387a.028.028,0,0,1-.013.025.047.047,0,0,1-.047,0L5.624,7.778a.3.3,0,0,0-.248,0L3.134,8.8a.047.047,0,0,1-.047,0,.028.028,0,0,1-.013-.025l.3-2.387A.3.3,0,0,0,3.3,6.134L1.608,4.375A.025.025,0,0,1,1.6,4.35a.037.037,0,0,1,.03-.023L4.059,3.87a.3.3,0,0,0,.205-.146l1.2-2.1Zm-3.7,4.963-.6.3a.3.3,0,0,0,.268.536l.6-.3a.3.3,0,0,0-.268-.536Zm7.2.536.6.3a.3.3,0,0,0,.268-.536l-.6-.3a.3.3,0,1,0-.268.536Zm-5.5-4.68-.591-.591a.3.3,0,0,0-.424.424l.591.591a.3.3,0,0,0,.424-.424Zm4.5.424.581-.581a.3.3,0,1,0-.424-.424l-.581.581a.3.3,0,0,0,.424.424Z" transform="translate(1977.5 7999)" fill-rule="evenodd"/>
    </g>
  </g>
</svg>
