<svg xmlns="http://www.w3.org/2000/svg" xmlns:xlink="http://www.w3.org/1999/xlink" width="18" height="21" viewBox="0 0 18 21">
  <defs>
    <clipPath id="clip-ZIP_3">
      <rect width="18" height="21"/>
    </clipPath>
  </defs>
  <g id="ZIP_3" data-name="ZIP – 3" clip-path="url(#clip-ZIP_3)">
    <g id="Group_19114" data-name="Group 19114" transform="translate(1691.111 -8421.833)">
      <g id="Group_19110" data-name="Group 19110" transform="translate(-1685.818 8433.172)">
        <path id="Path_21141" data-name="Path 21141" d="M3.27,8.158V7.514l1.859-2.3H3.48v-.6H6.072v.556L4.132,7.562H6.147v.6H3.27Zm3.306,0V4.618h.715v3.54Zm1.4,0V4.618H9.119a4.144,4.144,0,0,1,.85.054.927.927,0,0,1,.51.346,1.1,1.1,0,0,1,.205.689,1.15,1.15,0,0,1-.119.548.972.972,0,0,1-.3.349,1.036,1.036,0,0,1-.37.167,4.077,4.077,0,0,1-.742.051H8.687V8.158H7.972Zm.715-2.941v1h.391a1.851,1.851,0,0,0,.565-.055.472.472,0,0,0,.223-.174.479.479,0,0,0,.081-.275A.458.458,0,0,0,9.834,5.4a.493.493,0,0,0-.287-.157,3.4,3.4,0,0,0-.514-.024H8.687Z" transform="translate(-3.27 -4.618)" fill="#d96f20" stroke="#d96f20" stroke-width="0.3"/>
      </g>
      <path id="Path_21137" data-name="Path 21137" d="M2.407,10.058a.279.279,0,0,0,.558,0V2.211h9.768l2.551,2.551v5.3a.279.279,0,1,0,.558,0V4.646h0a.278.278,0,0,0-.082-.2h0L13.047,1.736a.278.278,0,0,0-.2-.083H2.686a.279.279,0,0,0-.279.279v8.126Zm13.435,7.407a.279.279,0,1,0-.558,0v2.319H2.965V17.465a.279.279,0,1,0-.558,0v2.6a.279.279,0,0,0,.279.279H15.563a.279.279,0,0,0,.279-.279v-2.6Z" transform="translate(-1691.235 8421.18)" fill="#d96f20" stroke="#d96f20" stroke-width="0.3"/>
      <path id="Path_21138" data-name="Path 21138" d="M5.879,1.932a.279.279,0,1,0-.558,0V3.289A1.64,1.64,0,0,0,6.957,4.925H8.314a.279.279,0,1,0,0-.558H6.957A1.082,1.082,0,0,1,5.879,3.289V1.932Z" transform="translate(-1683.987 8421.18)" fill="#d96f20" stroke="#d96f20" stroke-width="0.3"/>
      <path id="Path_21139" data-name="Path 21139" d="M2.443,11.391H18.4V4.542H2.443v6.849Zm16.236.558H2.164a.279.279,0,0,1-.279-.279V4.263a.279.279,0,0,1,.279-.279H18.679a.279.279,0,0,1,.279.279V11.67A.279.279,0,0,1,18.679,11.949Z" transform="translate(-1692.532 8426.976)" fill="#d96f20" stroke="#d96f20" stroke-width="0.3"/>
      <path id="Path_21140" data-name="Path 21140" d="M3.319,2.57a.279.279,0,1,0,0,.558h6.01a.279.279,0,1,0,0-.558H3.319Z" transform="translate(-1689.661 8423.46)" fill="#d96f20" stroke="#d96f20" stroke-width="0.3"/>
      <path id="Path_21141-2" data-name="Path 21141" d="M3.319,3.012a.279.279,0,1,0,0,.558h8.462a.279.279,0,1,0,0-.558H3.319Z" transform="translate(-1689.661 8424.558)" fill="#d96f20" stroke="#d96f20" stroke-width="0.3"/>
      <path id="Path_21142" data-name="Path 21142" d="M3.319,3.453a.279.279,0,1,0,0,.558h8.462a.279.279,0,1,0,0-.558H3.319Z" transform="translate(-1689.661 8425.655)" fill="#d96f20" stroke="#d96f20" stroke-width="0.3"/>
    </g>
  </g>
</svg>
