<svg xmlns="http://www.w3.org/2000/svg" xmlns:xlink="http://www.w3.org/1999/xlink" width="17" height="17" viewBox="0 0 17 17">
  <defs>
    <clipPath id="clip-Lead">
      <rect width="17" height="17"/>
    </clipPath>
  </defs>
  <g id="Lead" clip-path="url(#clip-Lead)">
    <g id="Group_11360" data-name="Group 11360" transform="translate(-18552.5 -24094.211)">
      <g id="Group_11349" data-name="Group 11349" transform="translate(468.309 50.211)">
        <path id="Path_11720" data-name="Path 11720" d="M228.838,113H217.925a1.194,1.194,0,0,0-1.2,1.2v12.383a1.194,1.194,0,0,0,1.2,1.2h10.941a1.194,1.194,0,0,0,1.2-1.2V114.2a1.236,1.236,0,0,0-1.231-1.2Zm.364,13.586a.37.37,0,0,1-.364.364H217.925a.37.37,0,0,1-.364-.364V114.2a.37.37,0,0,1,.364-.364h10.941a.37.37,0,0,1,.364.364v12.383Zm-.84-9.689a.43.43,0,0,1-.42.42h-5.736a.42.42,0,0,1,0-.839h5.764a.426.426,0,0,1,.392.42Zm-8.646-1.315a1.315,1.315,0,1,0,1.315,1.315A1.314,1.314,0,0,0,219.716,115.582Zm0,1.791a.476.476,0,1,1,.476-.476A.49.49,0,0,1,219.716,117.373Zm8.646,3.022a.43.43,0,0,1-.42.42h-5.736a.42.42,0,0,1,0-.839h5.764a.426.426,0,0,1,.392.42Zm-8.646-1.315a1.315,1.315,0,1,0,1.315,1.315A1.314,1.314,0,0,0,219.716,119.079Zm0,1.791a.476.476,0,1,1,.476-.476A.49.49,0,0,1,219.716,120.87Zm8.646,3.022a.43.43,0,0,1-.42.42h-5.736a.42.42,0,0,1,0-.839h5.764a.426.426,0,0,1,.392.42Zm-8.646-1.315a1.315,1.315,0,1,0,1.315,1.315A1.314,1.314,0,0,0,219.716,122.577Zm0,1.791a.476.476,0,1,1,.476-.476A.49.49,0,0,1,219.716,124.368Z" transform="translate(17869.469 23932)"/>
      </g>
    </g>
  </g>
</svg>
