<svg xmlns="http://www.w3.org/2000/svg" xmlns:xlink="http://www.w3.org/1999/xlink" width="17" height="17" viewBox="0 0 17 17">
  <defs>
    <clipPath id="clip-Logout">
      <rect width="17" height="17"/>
    </clipPath>
  </defs>
  <g id="Logout" clip-path="url(#clip-Logout)">
    <g id="Logout-2" data-name="Logout" transform="translate(3 3)">
      <path id="Vector" d="M2.429,9.78a1.053,1.053,0,0,1-.736-.3,1.007,1.007,0,0,1-.3-.72V2.375A1.014,1.014,0,0,1,1.7,1.658a1.06,1.06,0,0,1,.734-.3H5.6a.7.7,0,0,0,.491-.2.668.668,0,0,0,0-.96A.7.7,0,0,0,5.6,0H2.429A2.457,2.457,0,0,0,.711.7,2.349,2.349,0,0,0,0,2.375V8.762a2.349,2.349,0,0,0,.711,1.68,2.457,2.457,0,0,0,1.718.7H5.6a.7.7,0,0,0,.491-.2.668.668,0,0,0,0-.96.7.7,0,0,0-.491-.2Z"/>
      <path id="Vector-2" data-name="Vector" d="M8.176,3.354a.711.711,0,0,0-.164-.235L4.932.171a.768.768,0,0,0-1.01.037.69.69,0,0,0-.039.967L5.691,2.891H.744A.761.761,0,0,0,.218,3.1a.691.691,0,0,0,0,1.007.761.761,0,0,0,.526.209H5.691L3.883,6.045a.691.691,0,0,0,0,1.008.768.768,0,0,0,1.053,0l3.1-2.926A.839.839,0,0,0,8.176,3.9h0A.684.684,0,0,0,8.176,3.354Z" transform="translate(2.905 1.937)"/>
    </g>
  </g>
</svg>
