<svg xmlns="http://www.w3.org/2000/svg" xmlns:xlink="http://www.w3.org/1999/xlink" width="17" height="17" viewBox="0 0 17 17">
  <defs>
    <clipPath id="clip-Report">
      <rect width="17" height="17"/>
    </clipPath>
  </defs>
  <g id="Report" clip-path="url(#clip-Report)">
    <g id="Group_19767" data-name="Group 19767" transform="translate(2.603 1.809)">
      <path id="Path_11726" data-name="Path 11726" d="M159.9,14.995h-7.529a.161.161,0,0,0-.1.023c-.025.023-.05.023-.075.047l-3.764,3.483c-.025.023-.05.047-.05.07a.132.132,0,0,0-.025.093v9.435a.229.229,0,0,0,.251.232H159.9a.229.229,0,0,0,.251-.232V15.226a.229.229,0,0,0-.251-.232Zm-7.78.79v2.694h-2.911Zm7.529,12.129H148.854v-8.97h3.513a.229.229,0,0,0,.251-.232V15.459h7.027Zm-2.007-2.936a.229.229,0,0,1-.251.232h-6.274a.233.233,0,1,1,0-.465h6.274A.229.229,0,0,1,157.638,24.976Zm-1.255,1.59a.229.229,0,0,1-.251.232h-5.019a.233.233,0,1,1,0-.465h5.019A.229.229,0,0,1,156.383,26.566Zm-5.27-3.785h1.255a.229.229,0,0,0,.251-.232V20.923a.229.229,0,0,0-.251-.232h-1.255a.229.229,0,0,0-.251.232v1.625a.242.242,0,0,0,.251.232Zm.251-1.625h.753v1.161h-.753Zm2.259,1.625h1.255a.229.229,0,0,0,.251-.232V19.762a.229.229,0,0,0-.251-.232h-1.255a.229.229,0,0,0-.251.232v2.786a.242.242,0,0,0,.251.232Zm.251-2.787h.753v2.322h-.753Zm2.258,2.787h1.255a.229.229,0,0,0,.251-.232V19.065a.229.229,0,0,0-.251-.232h-1.255a.229.229,0,0,0-.251.232v3.483a.242.242,0,0,0,.251.232Zm.251-3.483h.753v3.019h-.753Z" transform="translate(-148.352 -14.994)" fill="#2f85cf" stroke="#2f85cf" stroke-linecap="round" stroke-width="0.3"/>
    </g>
  </g>
</svg>
