<svg xmlns="http://www.w3.org/2000/svg" xmlns:xlink="http://www.w3.org/1999/xlink" width="28" height="28" viewBox="0 0 28 28">
  <defs>
    <clipPath id="clip-Facebook">
      <rect width="28" height="28"/>
    </clipPath>
  </defs>
  <g id="Facebook" clip-path="url(#clip-Facebook)">
    <g id="Group_19775" data-name="Group 19775" transform="translate(-19459 10549.918)">
      <g id="Group_8779" data-name="Group 8779" transform="translate(19460 -10549)">
        <path id="Path_10897" data-name="Path 10897" d="M216.738,563.711a13.075,13.075,0,1,1,13.106,13.072A13.033,13.033,0,0,1,216.738,563.711Zm17.008-7.624a8.125,8.125,0,0,0-3.787-.229,2.6,2.6,0,0,0-2.326,2.483,21.65,21.65,0,0,0-.117,2.164c-.009.212,0,.426,0,.694h-1.665c0,.715.011,1.376,0,2.035-.009.361.18.45.487.445.373-.006.747,0,1.2,0v7.973h3.21v-7.973c.691,0,1.313.021,1.931-.013.182-.01.492-.15.512-.268.115-.7.161-1.416.237-2.186h-2.685c0-.631-.005-1.209,0-1.787.009-.76.3-1.063,1.071-1.057.5,0,.993.08,1.544.128Z" transform="translate(-216.738 -550.617)" fill="#2f85cf"/>
        <path id="Path_10906" data-name="Path 10906" d="M300.317,593.219l-.419,2.329c-.579-.047-1.1-.12-1.622-.124-.812-.006-1.115.287-1.125,1.022-.007.559,0,1.119,0,1.729h2.821c-.079.745-.128,1.436-.249,2.115-.02.115-.346.25-.538.26-.65.032-1.3.012-2.029.012v7.714h-3.372v-7.714c-.471,0-.863,0-1.255,0-.323,0-.521-.082-.512-.431.017-.638,0-1.277,0-1.969h1.749c0-.26-.008-.466,0-.672a19.326,19.326,0,0,1,.122-2.093,2.618,2.618,0,0,1,2.444-2.4A9.24,9.24,0,0,1,300.317,593.219Z" transform="translate(-283.109 -587.503)" fill="#fff"/>
      </g>
    </g>
  </g>
</svg>
