<svg xmlns="http://www.w3.org/2000/svg" xmlns:xlink="http://www.w3.org/1999/xlink" width="28" height="28" viewBox="0 0 28 28">
  <defs>
    <clipPath id="clip-Google_">
      <rect width="28" height="28"/>
    </clipPath>
  </defs>
  <g id="Google_" data-name="Google +" clip-path="url(#clip-Google_)">
    <g id="Group_8782" data-name="Group 8782" transform="translate(0.999 1)">
      <path id="Path_10899" data-name="Path 10899" d="M229.818,825.792a13.082,13.082,0,1,1,.466-26.157,13.082,13.082,0,0,1-.466,26.157Zm.525-17.362a4.7,4.7,0,0,0-2.438-1.41,5.658,5.658,0,0,0-6.894,4.6,5.827,5.827,0,0,0,5.142,6.937c3.808.32,6.88-3.48,5.637-6.972H226.6v2.327h2.957a2.962,2.962,0,0,1-3.907,2.178,3.565,3.565,0,0,1-2.176-4.7,3.318,3.318,0,0,1,1.925-1.977,3.137,3.137,0,0,1,3.251.522Zm3.041,4.7c.489,0,.929.023,1.366-.006s.625.11.591.575c-.036.491-.008.986-.008,1.461h1.412V813.11h1.916v-1.444H236.7v-1.955h-1.394V811.7h-1.925Z" transform="translate(-216.743 -799.628)" fill="#2f85cf" stroke="#2f85cf" stroke-width="0.5"/>
      <path id="Path_10908" data-name="Path 10908" d="M261.2,861.143l-1.78,1.589a3.3,3.3,0,0,0-3.414-.549,3.485,3.485,0,0,0-2.022,2.077,3.745,3.745,0,0,0,2.285,4.934,3.111,3.111,0,0,0,4.1-2.288H257.27v-2.444h5.453c1.305,3.668-1.922,7.66-5.922,7.324a6.121,6.121,0,0,1-5.4-7.287,5.943,5.943,0,0,1,7.242-4.836A4.94,4.94,0,0,1,261.2,861.143Z" transform="translate(-247.286 -852.557)" fill="#fff" stroke="#2f85cf" stroke-width="0.5"/>
    </g>
  </g>
</svg>
