<svg xmlns="http://www.w3.org/2000/svg" xmlns:xlink="http://www.w3.org/1999/xlink" width="28" height="28" viewBox="0 0 28 28">
  <defs>
    <clipPath id="clip-Insta">
      <rect width="28" height="28"/>
    </clipPath>
  </defs>
  <g id="Insta" clip-path="url(#clip-Insta)">
    <g id="Group_8781" data-name="Group 8781" transform="translate(1 1)">
      <path id="Path_10905" data-name="Path 10905" d="M730.388,563.723a13.1,13.1,0,1,1,13.2,13.056A13.081,13.081,0,0,1,730.388,563.723Zm13.247,7.4,0-.164c1.167,0,2.337.051,3.5-.011a3.808,3.808,0,0,0,3.86-3.6,64.391,64.391,0,0,0,.007-7.6,3.8,3.8,0,0,0-3.884-3.65c-2.313-.078-4.632-.073-6.946,0a3.819,3.819,0,0,0-3.895,3.575c-.131,2.549-.124,5.113-.005,7.662a3.614,3.614,0,0,0,3.209,3.49C740.851,571.039,742.251,571.029,743.635,571.121Z" transform="translate(-730.387 -550.615)" fill="#2f85cf"/>
      <path id="Path_10917" data-name="Path 10917" d="M785.494,609.962c-1.331-.088-2.678-.079-3.99-.288a3.479,3.479,0,0,1-3.087-3.36c-.114-2.455-.121-4.924.005-7.378a3.675,3.675,0,0,1,3.746-3.443c2.225-.071,4.457-.075,6.682,0a3.655,3.655,0,0,1,3.736,3.515,62.076,62.076,0,0,1-.007,7.317,3.664,3.664,0,0,1-3.713,3.471c-1.12.06-2.245.011-3.368.011Zm0-1.434v.056c.813,0,1.627,0,2.44,0,.232,0,.463-.033.7-.049a2.584,2.584,0,0,0,2.759-2.74c.081-2.091.079-4.189,0-6.28a2.494,2.494,0,0,0-2.5-2.733c-2.243-.083-4.493-.078-6.736,0a2.36,2.36,0,0,0-2.472,2.425c-.09,2.281-.095,4.571,0,6.853a2.441,2.441,0,0,0,2.569,2.46C783.324,608.568,784.41,608.528,785.494,608.528Z" transform="translate(-772.237 -589.741)" fill="#fff"/>
      <path id="Path_10920" data-name="Path 10920" d="M795.734,619.337c-1.184,0-2.369.044-3.55-.011a2.664,2.664,0,0,1-2.806-2.683c-.1-2.488-.095-4.987,0-7.475a2.576,2.576,0,0,1,2.7-2.646c2.449-.085,4.906-.09,7.355,0,1.69.062,2.666,1.137,2.735,2.981.085,2.281.087,4.57,0,6.85-.074,1.926-1.108,2.862-3.013,2.988-.253.017-.506.051-.759.053-.888.007-1.776,0-2.665,0Zm-.046-2.4a4.026,4.026,0,1,0-4-4.077A4.036,4.036,0,0,0,795.687,616.936Zm4.3-9.169a.958.958,0,0,0-.952.907.978.978,0,0,0,.9.966,1.025,1.025,0,0,0,.966-.92A.98.98,0,0,0,799.989,607.767Z" transform="translate(-782.496 -600.005)" fill="#2f85cf"/>
      <path id="Path_10921" data-name="Path 10921" d="M812.043,633.616a4.026,4.026,0,1,1,4.112-4.025A4.043,4.043,0,0,1,812.043,633.616Z" transform="translate(-798.846 -616.688)" fill="#fff"/>
    </g>
  </g>
</svg>
