<svg xmlns="http://www.w3.org/2000/svg" xmlns:xlink="http://www.w3.org/1999/xlink" width="28" height="28" viewBox="0 0 28 28">
  <defs>
    <clipPath id="clip-Linkdine">
      <rect width="28" height="28"/>
    </clipPath>
  </defs>
  <g id="Linkdine" clip-path="url(#clip-Linkdine)">
    <g id="Group_8785" data-name="Group 8785" transform="translate(1 1)">
      <path id="Path_10901" data-name="Path 10901" d="M216.738,1061.835a13.082,13.082,0,1,1,13.29,13.076A13.021,13.021,0,0,1,216.738,1061.835Zm11.427-3.956v8.919h2.9c0-1.8-.013-3.553,0-5.3a1.647,1.647,0,0,1,2.412-1.378,1.674,1.674,0,0,1,.811,1.583c0,1.689,0,3.378,0,5.1h2.817c.018-.16.042-.276.042-.393,0-1.673.016-3.345-.005-5.017a5.076,5.076,0,0,0-.189-1.311,2.932,2.932,0,0,0-2.341-2.338,2.994,2.994,0,0,0-3.3,1.212,1.014,1.014,0,0,0-.084.286l-.185-.141v-1.221Zm-4.678,0v8.931h2.937v-8.931Zm1.432-4.308a1.588,1.588,0,0,0-1.625,1.517,1.645,1.645,0,0,0,3.287.013A1.569,1.569,0,0,0,224.919,1053.568Z" transform="translate(-216.738 -1048.746)" fill="#2f85cf"/>
      <path id="Path_10911" data-name="Path 10911" d="M311.139,1122.654h3.022v1.282l.194.148a1.065,1.065,0,0,1,.088-.3,3.144,3.144,0,0,1,3.465-1.272,3.078,3.078,0,0,1,2.457,2.455,5.327,5.327,0,0,1,.2,1.376c.022,1.755.009,3.511.005,5.267,0,.123-.025.245-.044.413h-2.957c0-1.811,0-3.584,0-5.358a1.757,1.757,0,0,0-.851-1.662,1.729,1.729,0,0,0-2.532,1.446c-.019,1.838,0,3.676,0,5.568h-3.042Z" transform="translate(-300.01 -1113.748)" fill="#fff"/>
      <path id="Path_10912" data-name="Path 10912" d="M272.492,1124.172h3.083v9.376h-3.083Z" transform="translate(-265.786 -1115.278)" fill="#fff"/>
    </g>
  </g>
</svg>
