<svg xmlns="http://www.w3.org/2000/svg" xmlns:xlink="http://www.w3.org/1999/xlink" width="28" height="28" viewBox="0 0 28 28">
  <defs>
    <clipPath id="clip-Youtube">
      <rect width="28" height="28"/>
    </clipPath>
  </defs>
  <g id="Youtube" clip-path="url(#clip-Youtube)">
    <g id="Group_8783" data-name="Group 8783" transform="translate(1 1)">
      <path id="Path_10904" data-name="Path 10904" d="M473.421,812.669a13.094,13.094,0,1,1,13.091,13.11A13.115,13.115,0,0,1,473.421,812.669Zm13.2,5v-.007c1.63,0,3.262.029,4.891-.009a1.844,1.844,0,0,0,2.04-1.734,19.808,19.808,0,0,0,.009-6.434,1.885,1.885,0,0,0-2.109-1.74q-4.892-.038-9.784,0a1.978,1.978,0,0,0-2.26,2.122c-.086,1.865-.089,3.741,0,5.606.069,1.517.739,2.131,2.266,2.185C483.323,817.711,484.975,817.666,486.625,817.666Z" transform="translate(-473.421 -799.614)" fill="#2f85cf" stroke="#2f85cf" stroke-width="0.5"/>
      <path id="Path_10916" data-name="Path 10916" d="M529.386,877.081c-1.583,0-3.168.048-4.749-.014-1.464-.057-2.107-.7-2.173-2.3-.082-1.959-.079-3.929,0-5.889.064-1.526.775-2.216,2.168-2.229q4.692-.043,9.385,0a1.862,1.862,0,0,1,2.023,1.827,22.758,22.758,0,0,1-.009,6.758,1.826,1.826,0,0,1-1.957,1.821c-1.563.04-3.128.01-4.692.01Zm-1.521-3.225,3.786-2.149-3.827-2.179c0,1.388,0,2.653,0,3.918C527.826,873.544,527.844,873.642,527.865,873.856Z" transform="translate(-516.18 -858.778)" fill="#fff" stroke="#2f85cf" stroke-width="0.5"/>
      <path id="Path_10919" data-name="Path 10919" d="M569.154,893.727c-.023-.214-.043-.312-.043-.41,0-1.265,0-2.531,0-3.919l4.191,2.18Z" transform="translate(-557.639 -878.639)" fill="#2f85cf" stroke="#2f85cf" stroke-width="0.5"/>
    </g>
  </g>
</svg>
